<svg viewBox="0 0 330 200" xmlns="http://www.w3.org/2000/svg"><g><g><g><g><g><line x1="48.875" y1="177.828125" x2="43.875" y2="177.828125" style="visibility: inherit;" fill="rgb(0, 0, 0)" stroke="rgb(204, 204, 204)" stroke-width="1px"></line><line x1="48.875" y1="152.4241071428571" x2="43.875" y2="152.4241071428571" style="visibility: inherit;" fill="rgb(0, 0, 0)" stroke="rgb(204, 204, 204)" stroke-width="1px"></line><line x1="48.875" y1="127.02008928571425" x2="43.875" y2="127.02008928571425" style="visibility: inherit;" fill="rgb(0, 0, 0)" stroke="rgb(204, 204, 204)" stroke-width="1px"></line><line x1="48.875" y1="101.61607142857139" x2="43.875" y2="101.61607142857139" style="visibility: inherit;" fill="rgb(0, 0, 0)" stroke="rgb(204, 204, 204)" stroke-width="1px"></line><line x1="48.875" y1="76.21205357142861" x2="43.875" y2="76.21205357142861" style="visibility: inherit;" fill="rgb(0, 0, 0)" stroke="rgb(204, 204, 204)" stroke-width="1px"></line><line x1="48.875" y1="50.80803571428575" x2="43.875" y2="50.80803571428575" style="visibility: inherit;" fill="rgb(0, 0, 0)" stroke="rgb(204, 204, 204)" stroke-width="1px"></line><line x1="48.875" y1="25.40401785714286" x2="43.875" y2="25.40401785714286" style="visibility: inherit;" fill="rgb(0, 0, 0)" stroke="rgb(204, 204, 204)" stroke-width="1px"></line><line x1="48.875" y1="0" x2="43.875" y2="0" style="visibility: inherit;" fill="rgb(0, 0, 0)" stroke="rgb(204, 204, 204)" stroke-width="1px"></line></g><g transform="translate(38.875, 0)"><text x="0" y="177.828125" dx="0em" dy="0.3em" style="text-anchor: end; visibility: hidden; font-family: &quot;Helvetica Neue&quot;, sans-serif; font-size: 12px; font-weight: 200;" fill="rgb(50, 49, 63)" stroke="none" stroke-width="1px">1.2</text><text x="0" y="152.4241071428571" dx="0em" dy="0.3em" style="text-anchor: end; visibility: inherit; font-family: &quot;Helvetica Neue&quot;, sans-serif; font-size: 12px; font-weight: 200;" fill="rgb(50, 49, 63)" stroke="none" stroke-width="1px">1.25</text><text x="0" y="127.02008928571425" dx="0em" dy="0.3em" style="text-anchor: end; visibility: inherit; font-family: &quot;Helvetica Neue&quot;, sans-serif; font-size: 12px; font-weight: 200;" fill="rgb(50, 49, 63)" stroke="none" stroke-width="1px">1.3</text><text x="0" y="101.61607142857139" dx="0em" dy="0.3em" style="text-anchor: end; visibility: inherit; font-family: &quot;Helvetica Neue&quot;, sans-serif; font-size: 12px; font-weight: 200;" fill="rgb(50, 49, 63)" stroke="none" stroke-width="1px">1.35</text><text x="0" y="76.21205357142861" dx="0em" dy="0.3em" style="text-anchor: end; visibility: inherit; font-family: &quot;Helvetica Neue&quot;, sans-serif; font-size: 12px; font-weight: 200;" fill="rgb(50, 49, 63)" stroke="none" stroke-width="1px">1.4</text><text x="0" y="50.80803571428575" dx="0em" dy="0.3em" style="text-anchor: end; visibility: inherit; font-family: &quot;Helvetica Neue&quot;, sans-serif; font-size: 12px; font-weight: 200;" fill="rgb(50, 49, 63)" stroke="none" stroke-width="1px">1.45</text><text x="0" y="25.40401785714286" dx="0em" dy="0.3em" style="text-anchor: end; visibility: inherit; font-family: &quot;Helvetica Neue&quot;, sans-serif; font-size: 12px; font-weight: 200;" fill="rgb(50, 49, 63)" stroke="none" stroke-width="1px">1.5</text><text x="0" y="0" dx="0em" dy="0.3em" style="text-anchor: end; visibility: hidden; font-family: &quot;Helvetica Neue&quot;, sans-serif; font-size: 12px; font-weight: 200;" fill="rgb(50, 49, 63)" stroke="none" stroke-width="1px">1.55</text></g><line x1="48.875" y1="0" x2="48.875" y2="177.828125" fill="rgb(0, 0, 0)" stroke="rgb(204, 204, 204)" stroke-width="1px"></line></g></g><g transform="translate(48, 0)" clip-path="url(#clip_0)"><clipPath id="clip_0"><rect width="281" height="177"></rect></clipPath><g><g><g><line x1="0" y1="0" x2="0" y2="177.828125" fill="rgb(0, 0, 0)" stroke="rgb(60, 60, 60)" stroke-width="1px" opacity="0.25"></line><line x1="21.625" y1="0" x2="21.625" y2="177.828125" fill="rgb(0, 0, 0)" stroke="rgb(60, 60, 60)" stroke-width="1px" opacity="0.25"></line><line x1="43.25" y1="0" x2="43.25" y2="177.828125" fill="rgb(0, 0, 0)" stroke="rgb(60, 60, 60)" stroke-width="1px" opacity="0.25"></line><line x1="64.875" y1="0" x2="64.875" y2="177.828125" fill="rgb(0, 0, 0)" stroke="rgb(60, 60, 60)" stroke-width="1px" opacity="0.25"></line><line x1="86.5" y1="0" x2="86.5" y2="177.828125" fill="rgb(0, 0, 0)" stroke="rgb(60, 60, 60)" stroke-width="1px" opacity="0.25"></line><line x1="108.125" y1="0" x2="108.125" y2="177.828125" fill="rgb(0, 0, 0)" stroke="rgb(60, 60, 60)" stroke-width="1px" opacity="0.25"></line><line x1="129.75" y1="0" x2="129.75" y2="177.828125" fill="rgb(0, 0, 0)" stroke="rgb(60, 60, 60)" stroke-width="1px" opacity="0.25"></line><line x1="151.375" y1="0" x2="151.375" y2="177.828125" fill="rgb(0, 0, 0)" stroke="rgb(60, 60, 60)" stroke-width="1px" opacity="0.25"></line><line x1="173" y1="0" x2="173" y2="177.828125" fill="rgb(0, 0, 0)" stroke="rgb(60, 60, 60)" stroke-width="1px" opacity="0.25"></line><line x1="194.625" y1="0" x2="194.625" y2="177.828125" fill="rgb(0, 0, 0)" stroke="rgb(60, 60, 60)" stroke-width="1px" opacity="0.25"></line><line x1="216.25" y1="0" x2="216.25" y2="177.828125" fill="rgb(0, 0, 0)" stroke="rgb(60, 60, 60)" stroke-width="1px" opacity="0.25"></line><line x1="237.875" y1="0" x2="237.875" y2="177.828125" fill="rgb(0, 0, 0)" stroke="rgb(60, 60, 60)" stroke-width="1px" opacity="0.25"></line><line x1="259.5" y1="0" x2="259.5" y2="177.828125" fill="rgb(0, 0, 0)" stroke="rgb(60, 60, 60)" stroke-width="1px" opacity="0.25"></line><line x1="281.125" y1="0" x2="281.125" y2="177.828125" fill="rgb(0, 0, 0)" stroke="rgb(60, 60, 60)" stroke-width="1px" opacity="0.25"></line></g><g><line x1="0" y1="177.828125" x2="281.125" y2="177.828125" fill="rgb(0, 0, 0)" stroke="rgb(60, 60, 60)" stroke-width="1px" opacity="0.25"></line><line x1="0" y1="152.4241071428571" x2="281.125" y2="152.4241071428571" fill="rgb(0, 0, 0)" stroke="rgb(60, 60, 60)" stroke-width="1px" opacity="0.25"></line><line x1="0" y1="127.02008928571425" x2="281.125" y2="127.02008928571425" fill="rgb(0, 0, 0)" stroke="rgb(60, 60, 60)" stroke-width="1px" opacity="0.25"></line><line x1="0" y1="101.61607142857139" x2="281.125" y2="101.61607142857139" fill="rgb(0, 0, 0)" stroke="rgb(60, 60, 60)" stroke-width="1px" opacity="0.25"></line><line x1="0" y1="76.21205357142861" x2="281.125" y2="76.21205357142861" fill="rgb(0, 0, 0)" stroke="rgb(60, 60, 60)" stroke-width="1px" opacity="0.25"></line><line x1="0" y1="50.80803571428575" x2="281.125" y2="50.80803571428575" fill="rgb(0, 0, 0)" stroke="rgb(60, 60, 60)" stroke-width="1px" opacity="0.25"></line><line x1="0" y1="25.40401785714286" x2="281.125" y2="25.40401785714286" fill="rgb(0, 0, 0)" stroke="rgb(60, 60, 60)" stroke-width="1px" opacity="0.25"></line><line x1="0" y1="0" x2="281.125" y2="0" fill="rgb(0, 0, 0)" stroke="rgb(60, 60, 60)" stroke-width="1px" opacity="0.25"></line></g></g></g><g><g><line x1="0" y1="787.5245535714283" x2="281.125" y2="787.5245535714283" fill="rgb(0, 0, 0)" stroke="rgb(153, 153, 153)" stroke-width="1.5px"></line></g></g><g><g><line x1="21.625" y1="0" x2="21.625" y2="177.828125" fill="rgb(0, 0, 0)" stroke="rgb(153, 153, 153)" stroke-width="1.5px"></line></g></g><g><g><g><g><g><path stroke="rgb(255, 112, 67)" stroke-width="2px" d="M22.079125,-37.77712795537502L22.10075,29.20660277981716L22.381875,-5.832098569732693L22.641375,-23.18275088536737L23.333375,21.10675741600423L23.419874999999998,99.83806313886596L24.09025,34.86015937879884L24.155124999999998,-7.277619562386491L24.371375,2.2721504216610526L24.566,-37.92368576314826L24.95525,-17.056728025377964L24.976875000000003,37.973626374126866L25.063375,9.61186982088762L25.366125,34.00423447945454L25.582375,47.42051435416985L26.166249999999998,14.743469746227674L26.59875,-4.267190196383211L27.420499999999997,-6.1401188456098055L27.701625,17.063157269447515L27.874624999999998,43.340568801113506L27.961125,46.47162529199568L27.961125,50.79627741517281L28.480125,58.26407180851545L28.609875,65.62207834663282L28.76125,68.16791656892131L28.869375,64.58416243057358L29.345125,68.83446271956359L29.431625,73.57039246454733L29.88575,73.92251177797725L29.929,54.777880456447875L29.950625,53.936638107302485L30.102,43.8182648865818L30.123625,48.60968204449239L30.210124999999998,41.76486234823372L30.296625,50.206234028567906L30.3615,45.42867656657282L30.66425,53.78857168609554L31.832,27.607098682676536L32.113125000000004,12.113303624029129L32.13475,2.0990789558589995L32.199625,9.668146857102954L32.459125,17.06051857508953L32.48075,21.173817294126167L32.588875,25.06906693780863L33.107875,48.52537072238056L33.151125,55.713188622207895L33.43225,31.835520133197576L33.497125,45.56963873889154L33.562,28.862895134778938L34.124249999999996,28.435057206309693L34.1675,32.998250896044425L34.189125,34.17777931095611L34.38375,40.66847084574604L34.5135,33.78276893606005L35.07575,47.092479816313386L35.248749999999994,64.66024478151795L35.85425,73.93498622955741L35.87587499999999,92.51437038274669L36.027249999999995,107.63796845218536L36.0705,130.19584974645502L36.5895,101.85596864393108L36.676,90.91110717636798L36.913875000000004,74.89433833162883L37.043625000000006,87.80291288316786L37.15175,78.56556994194969L37.476125,83.4116247494955L37.58425,77.19010057832145L37.735625,76.58910364806431L38.081625,87.71697600594456L38.406,76.39764430938365L38.579,83.57167017096059L38.751999999999995,112.82867888462245L38.79525,94.8155486753684L38.96825,105.76336893267045L39.3575,96.50731667943197L39.811625,96.79456272420863L39.898125,97.10013550041666L40.09275,76.80968823954875L40.200874999999996,63.82368890854107L40.35225,29.555292836160987L40.373875,55.311060104142015L40.395500000000006,73.51381850954404L40.87125,62.175486847771566L41.368625,54.51128501680016L41.563250000000004,43.73798781114445L41.649750000000004,46.041939597337034L41.801125,31.69596612854184L41.82275,42.14197689194654L41.90925,55.49445269856646L42.341750000000005,59.329611997073485L42.536375,62.586638603198466L42.644499999999994,50.18522087592021L42.666125,68.47516402219613L43.25,83.57142953004512L43.37975,79.58744245042337L43.63925,92.99257665607719L44.07175,83.14351235469216L44.15825,83.42072118902234L44.2015,87.52538928865378L44.288000000000004,76.26139660592844L44.85025,70.92683115210856L44.93675,69.34250372541557L45.261125,82.96073996275508L45.304375,77.6819741842992L45.390875,86.22067244286978L45.520625,78.43243867674012L45.736875,88.70407012499214L45.80175,88.77028434002224L45.80175,91.81970442249666L46.018,97.52899686387606L46.082875,102.57764664312778L46.4505,112.65153722903045L46.558625,112.15940821135588L46.68837499999999,119.92588766919874L46.9695,120.83657397802487L47.077625000000005,128.13075841650848L47.44525,129.074183689099L47.466875,126.60363092514362L47.4885,131.12147023630766L47.96425,117.82960206565552L48.13725,109.66470982396693L48.158874999999995,103.56684504351323L48.223749999999995,98.9696629301217L48.483250000000005,90.19715516727773L48.504875,82.54855935167522L48.613,114.69342038609189L48.634625,122.39180832253462L48.677875,122.43605080887755L48.82925,120.69696938056234L48.894125,128.3789319684756L49.00225,124.87402198854991L49.153625,143.59378647634583L49.2185,137.79400059053248L50.64575,125.59157641894691L50.840375,135.45890385012075L51.25125,121.92750787283842L51.402625,113.90189639570121L51.77025,97.44770524237212L52.6785,63.90826001962212L52.938,80.5319121202412L53.694875,80.40594600476601L53.781375000000004,61.04029018824819L54.170625,76.99835724917364L54.473375000000004,84.86455284443173L54.495,97.34527111369094L55.122125,97.15681786045346L55.792500000000004,102.42617276858806L56.160125,94.50352112426128L56.18175,95.08753675291916L56.549375,59.42240824443088L56.6575,39.64836785367038L56.679125,34.27401197824847L56.70075,44.16077369333826L56.722375,23.926529523024044L56.722375,15.497147746513832L57.3495,48.17239875779944L57.782,73.64779007843967L58.128,78.05626590156793L58.409124999999996,73.04896083876883L58.474,85.52117792865019L58.711875,93.16833223419766L58.9065,106.75231445229193L59.0795,134.10410852710942L59.2525,136.6970308115344L59.5985,135.41217397393342L60.550000000000004,120.4590684143057L60.744625,99.50304688190953L60.76625,90.059679860923L60.85275,83.6533503396488L61.1555,106.35297378891063L61.306875000000005,118.36544542478956L61.912375,97.30988769980162L61.955625,97.21401112698084L62.06375,103.9344206498843L62.626000000000005,96.63942759315859L62.863875,99.3542058481189L62.907125,101.76120070554428L62.928749999999994,127.26175551036707L63.036875,127.17837519470109L63.404500000000006,128.4025017705668L63.53425,125.59298039001877L64.0965,120.49840933055424L64.39925,96.16241962807115L64.702,76.41131885662858L65.112875,89.77878125710679L65.221,91.1186437299625L65.26425,90.09152096327229L65.86975,109.54766688066938L65.934625,108.73123623833276L66.04275,124.39638689699905L66.84287499999999,145.0747705142855L66.972625,138.7085625281344L66.99425,116.46902538072098L67.03750000000001,126.85788922490148L67.059125,124.56707532650253L67.318625,104.44507807418462L67.3835,93.89353914812062L67.405125,92.02787508052073L67.707875,96.30139386004237L67.751125,84.11383006268075L68.16199999999999,97.96136545415713L68.29175000000001,112.85613687075197L68.313375,95.44518864338664L68.854,107.62601128373447L69.1135,134.38908342725665L69.2,136.05269915754997L69.546,95.59674529456055L70.19475,103.45453999175393L70.36775,111.10675988294084L70.605625,114.24877469018674L71.124625,98.84557956110501L71.14625000000001,81.80910695583258L71.66525,94.0425294564745L72.05449999999999,126.46949152508867L72.09775,132.91844608401948L72.18424999999999,171.05749914698075L72.57350000000001,166.0292325433372L72.638375,167.37115041242285L72.984375,146.06143511345022L73.070875,144.69829971242828L73.39525,142.76819803973794L73.525,130.61432580575374L73.546625,117.32316398959088L73.95750000000001,90.08947419812435L74.08725000000001,77.09953728303834L74.54137499999999,97.99690356373674L75.276625,83.1766824846942L75.36312500000001,93.5054816716768L75.406375,88.11178555656336L76.22812499999999,96.5132292508926L76.24974999999999,118.93095283975707L76.24974999999999,135.7566241097395L76.833625,122.38080333431799L77.136375,119.40815145315582L77.85000000000001,110.65966386905139L78.260875,128.23311266403175L79.23400000000001,126.0837009725447L79.40700000000001,138.94077685341094L79.558375,118.78632714838122L80.22875,117.68985619028328L80.46662500000001,85.43963666912441L81.24512499999999,110.98766432412668L81.26675,122.27795881412482L81.61275,152.923979352776L81.87225000000001,152.31880700128815L82.02362500000001,103.50012505034272L82.499375,113.17173615639348L82.82375,128.6237262613557L82.867,125.2813405274398L83.018375,154.21675349093616L83.4725,145.14461986483843L83.494125,156.42910300776953L84.078,126.96197082068167L84.424,111.03137695768858L84.597,99.54897232469118L84.64025,80.83963148876039L85.007875,65.66165666289676L85.0295,66.81752070107872L85.094375,65.27673780597253L85.483625,93.02312454899638L85.72149999999999,110.40915814062825L85.981,126.18742164130393L86.02425,109.20898166646936L86.08912500000001,135.64054224529661L86.391875,154.73317446152782L86.608125,171.63170009543455L86.651375,172.38766088130623L86.82437499999999,155.53345161190876L86.867625,136.31916991180935L87.34337500000001,131.11573074983465L87.7975,123.39956793111426L87.905625,111.60635953200976L88.44625,102.6323576921836L88.6625,114.92215388742773L88.79225,109.91236755004424L88.857125,92.78332165075733L89.0085,108.25480980903237L89.61399999999999,97.9997584893127L89.8735,59.09335259298541L89.91675,45.591501820854205L90.17625,30.01381729640306L90.306,26.18157455170504L90.41412500000001,42.00709982251314L90.5655,49.086409971753454L90.825,53.411547198421474L91.863,89.19958221841601L91.90625,102.43962684401542L92.12249999999999,123.01632441784713L92.706375,112.40209444287889L92.8145,88.50663606053106L93.009125,92.39872368708556L93.593,123.64150786293152L93.701125,133.81265367205503L93.83087499999999,153.45556134577217L93.8525,157.5005831702857L94.02550000000001,151.99761091632638L94.04712500000001,172.13899605081846L94.17687500000001,182.22789683447957L94.479625,175.37751304724114L94.522875,198.83716022485333L94.631,157.53920772637372L95.496,131.3149469909993L95.647375,128.95523614819984L95.733875,109.5470370594544L95.88525,104.69471050421828L96.59887499999999,111.54717474779316L96.94487500000001,101.30931866441946L97.226,102.8979276562788L97.463875,111.97622816873793L98.458625,117.93529794368783L98.545125,79.07207320526284L98.783,95.01051912883796L98.977625,104.25853670261515L99.648,104.74844987294966L99.972375,88.58345901686229L100.55625,88.27442692946366L100.66437499999999,97.01899325559553L100.85900000000001,108.17650580275924L100.967125,127.92773209987544L100.98875000000001,148.59347135837524L101.183375,142.81459888229162L101.442875,122.454355532668L101.6375,118.20422065753539L102.07,104.81498131453276L102.09162500000001,125.50569084805676L102.178125,125.93891408499397L102.28625,138.18271549786346L102.307875,147.3025213196589L102.480875,121.22756647172145L102.826875,134.27285599769704L103.043125,104.0533594680095L103.8865,90.83536555806099L104.27575,80.30257229641084L104.44875,99.03198631188269L104.62175,85.50942939695884L104.729875,100.0760051235473L104.79475,74.2414198856219L105.075875,55.98167983450762L105.184,24.217758532343566L105.378625,36.88472557509354L105.53,38.71368148719492L105.74625,43.86825627732827L105.83275,54.807693526182746L105.94087499999999,69.82154679002413L106.30850000000001,75.80621235107887L106.373375,92.41586340644412L107.022125,73.58820813319451L107.04374999999999,72.83307005290429L107.38975,85.6005300251668L107.930375,91.97362321424639L108.016875,105.69977329301578L108.406125,99.20697366671403L108.51425,93.70089038085638L108.644,100.93464955738769L108.838625,88.57490606934778L110.07125,87.04495143534167L110.11449999999999,93.43137029451134L110.265875,95.2460198670575L110.438875,103.74807810433971L110.50375000000001,106.57171779491041L110.957875,104.07499067385096L111.130875,121.6750060833298L111.260625,125.77600618828725L111.649875,126.96262107611187L111.71475,133.50461363813156L111.73637500000001,101.45712913457508L111.80125,84.40295330387164L112.03912500000001,87.67871237049151L112.104,77.30086620343373L112.19049999999999,74.96739033149692L113.163625,98.94818572828522L113.206875,121.45004791141022L113.509625,122.65876487607898L113.552875,138.34705208540475L113.61775,137.83582889361344L114.24487500000001,147.8650068421552L114.52600000000001,140.69174596970186L114.6125,140.0402033104507L114.98012499999999,150.46629250916456L114.98012499999999,159.19347969089944L115.08825,152.55855659311575L115.499125,136.08254220116046L115.585625,139.39056001237063L115.62887500000001,102.81106296685526L116.493875,71.3576449458516L116.775,84.30699887133508L116.969625,101.87298425120812L117.01287500000001,117.85256606985753L117.229125,103.62143188676446L117.358875,107.7662265285666L117.618375,100.88220766181351L117.68325,127.84238881763574L117.877875,119.29497210619904L117.8995,132.353462979254L117.92112499999999,156.75821437966806L118.159,156.83971871880456L118.22387499999999,147.91764339007165L118.483375,144.1222529942484L118.656375,146.7902180717915L118.851,151.16258414954547L118.915875,126.30596065316395L119.02399999999999,133.9314335436111L119.24025,149.9242991256151L119.521375,157.03101703040974L119.60787499999999,127.36277909414447L119.84575000000001,85.14495408352397L120.602625,103.00304698877103L121.38112500000001,106.0480443933418L121.446,100.66949800671574L121.74875,92.43386529228529L121.96499999999999,106.4873781011701L122.24612499999999,100.29078778235748L122.35425000000001,106.60602709843464L122.70025,110.77199992482677L122.91650000000001,89.791832123155L123.39225,68.27994801637806L123.413875,67.53305874318825L123.63012499999999,79.20211470796097L123.71662500000001,75.40194196591553L123.99775,108.87053827313734L124.75462499999999,72.05469683457872L124.841125,52.152104965743206L124.92762499999999,42.07698597467609L125.057375,37.89922288800699L125.29525,30.529641154168303L125.42500000000001,49.31542724875956L125.706125,37.74979703729369L125.965625,31.428574881583586L126.0305,34.490964784486835L126.28999999999999,49.41598289607646L126.484625,63.22231283553228L127.2415,75.27554184315419L127.71724999999999,101.98645455652027L128.02,121.57868281823818L128.041625,136.32212492973207L128.47412500000002,129.1546193089265L128.733625,118.80129934960826L129.44725,111.86915506192581L130.290625,134.68232841651763L130.333875,149.47537853081556L130.377125,154.34200135922146L130.5285,152.35558765052892L130.65825,84.10041845435232L130.89612499999998,50.157808905976424L130.961,77.97378831743869L131.13400000000001,89.51915053510473L131.307,112.2330029516446L131.56650000000002,98.04041935344414L131.7395,122.18969403154438L132.38825,127.31829632190933L132.518,146.39909544849095L132.73425,133.593911048213L132.799125,124.26611546746958L132.864,136.77168086980453L134.03175000000002,96.79536000464883L134.05337500000002,80.51935218276437L134.29125,54.36133651095885L134.3345,46.43346367402401L134.81025,74.51939215861447L134.918375,106.76713943500069L135.0265,79.66597578451574L135.06975,71.1609727584284L135.394125,94.66908324787221L135.480625,96.31043276974518L135.740125,81.49215715572046L135.740125,75.7669062470655L135.869875,95.26213213364407L136.215875,57.27915158265053L136.302375,39.20067357059247L136.49699999999999,37.94700887394936L136.54025000000001,36.20251406273755L136.648375,67.17649029986396L136.734875,59.355743505762575L136.821375,96.77889286257927L136.99437500000002,98.79746427914645L137.31875,103.98874177802297L137.426875,106.58553161014903L137.83775,115.54660168760886L137.92425,101.06765723298038L137.945875,86.56846152756071L138.18375,99.89237682529364L138.248625,97.37373783252615L138.551375,97.57786154698796L138.6595,113.07179003158659L138.724375,134.26489372798045L138.83249999999998,126.30505587308554L138.940625,96.6556616387559L139.092,95.7477520145055L139.50287500000002,82.23202738812599L139.5245,85.48336177132576L139.892125,55.53796842220365L139.935375,56.10174742993338L140.194875,80.77006694427254L140.25975,72.20384231061418L140.281375,91.23714342028309L140.71387499999997,84.88596969517039L140.77875,88.28512272383801L140.800375,97.63171962246068L140.9085,89.22489597577135L140.973375,62.567801373556605L141.12475,57.973731359540366L141.21125,66.9090257342281L141.38425,75.14196869423864L141.665375,52.76280193698071L141.85999999999999,47.162757892865585L141.96812500000001,25.360072899393543L142.16275,15.823476770071238L142.443875,48.07090469937978L142.703375,72.57868040645998L142.725,80.38943495223707L142.725,87.96696306091422L143.37375,90.11990926244698L143.395375,81.09294217573905L143.50349999999997,99.11399475653772L143.914375,103.49584180494605L144.455,116.8253595102372L145.08212500000002,143.58937932235682L145.471375,104.27094932818308L145.666,87.61719305257056L145.88225,79.46196364596942L146.185,45.50185546632173L146.206625,50.8070882545956L146.29312499999997,46.43891307975005L146.31474999999998,56.650552838066744L146.48775,54.15344322861401L146.57424999999998,60.73544388114399L146.682375,68.8529028140587L147.00675,66.92683624881998L147.43925,59.94156031490179L147.56900000000002,49.09991837336818L147.69875,55.437823068720434L147.806875,60.43087045263877L147.95825,76.77758382080398L147.979875,95.12008904365877L148.369125,86.86972477916072L148.758375,82.5025570377132L149.061125,95.24968894031176L149.2125,110.16381431089614L149.536875,110.22041327635506L149.796375,96.628170278805L149.99099999999999,81.40401773835607L150.35862500000002,71.7695987806131L150.63975,88.54055642824405L150.791125,104.6649116526223L150.81275,125.13228819499047L151.029,142.20789886466724L151.093875,158.24384708035373L151.24525,133.02077673613906L151.353375,142.66795098371097L151.396625,147.72042824805425L151.483125,172.22732898283388L151.67775,137.02461135627425L151.8075,165.8585596652467L152.86712500000002,142.68624757529557L153.0185,121.6039169129379L153.14825,113.19054042166069L153.19150000000002,96.53455566087717L153.3645,75.87670224993185L153.7105,46.207928668278726L153.818625,49.37255750687868L154.510625,71.09087129800974L154.53225,77.04665686069751L154.70524999999998,75.8662023064509L154.87825,99.18422155949995L155.65675000000002,100.29417929233378L155.74325000000002,105.90872082222265L156.08925,107.50290322538905L156.28387500000002,148.69498253392902L156.327125,135.62363842955153L156.565,121.86601327982663L157.257,94.92156568883985L157.3435,99.17546099171801L157.581375,79.52542365339852L157.81924999999998,67.9503688354425L158.12199999999999,58.93873502377036L158.619375,84.30027135605775L158.922125,118.19265049676065L159.570875,140.35340062197594L159.743875,154.0353532569032L160.06825,137.09319625288208L160.392625,97.923364904463L160.652125,77.97067226074232L160.717,72.38528742851078L160.84675,60.17631633982397L160.99812500000002,54.31788818609499L161.063,51.74284507717617L161.517125,59.27651109457139L161.517125,67.01562800673148L161.733375,76.16040745519955L162.3605,94.89926479757122L162.555125,107.65273072762322L162.83625,113.11462662484068L162.857875,94.816315845984L162.944375,104.04893398662682L163.07412499999998,106.7868761621731L163.203875,107.9216463899589L163.35524999999998,104.02885692759779L163.39849999999998,104.14148306685766L163.593125,110.17078121804049L163.78775000000002,125.03058577701017L163.982375,103.16605635785373L164.13375,82.6812162647275L164.241875,74.26292672453094L164.285125,65.55059931438679L164.414875,95.0428057724498L164.414875,115.52066735454832L164.458125,105.29187374898288L164.760875,115.76086170002336L165.042,113.15832472202753L165.409625,112.45560688036076L165.56099999999998,120.66264857292333L165.95025,122.86063979956177L166.53412500000002,117.59909578072059L166.57737500000002,112.49883623536078L166.793625,84.3696515835265L167.312625,117.09281601981247L167.637,141.02376480215918L168.09112499999998,166.50948073284877L168.63174999999998,142.76649875872428L168.80475,90.26239086477389L168.89124999999999,99.02275154932822L168.956125,78.09958409463637L169.49675,98.14090382998913L169.518375,94.05778422493603L169.561625,105.48392107893054L169.69137500000002,88.85040310166839L169.994125,81.06415850434819L170.25362500000003,98.00778642177487L170.340125,96.06576191966822L170.57799999999997,111.49813800973179L170.945625,115.7979734160707L171.31325,72.98836427311757L171.57275,63.311542287609086L171.594375,58.99270595533403L171.74575,43.82237228832864L172.308,53.27946020030606L172.329625,61.08194776181281L172.52425,74.46728957178537L172.5675,74.31058697051353L172.654,80.47814742882402L172.675625,65.61927445583302L172.74050000000003,81.79766707204867L172.95675,104.86440626560078L172.978375,119.91777014983465L173.865,120.39253774861731L173.92987499999998,46.39031368371553L174.73,61.603732750787785L175.37875,69.73805879540284L175.443625,86.30854954115766L175.703125,65.02707481771321L176.092375,85.82465278355336L176.114,81.98870312889676L176.178875,99.32363363507963L176.265375,102.26282067198851L176.45999999999998,88.50030936147063L176.58975,85.4429927425019L176.654625,92.45590105478279L176.870875,104.06782935114428L177.28175,74.11950638154751L177.822375,71.6772629472335L178.081875,65.15260765100406L178.34137500000003,63.21237641574167L178.730625,53.16922603931474L178.990125,38.6450055332738L179.01175,54.96403359295893L179.8335,58.0284404511569L179.898375,68.00467244333227L180.22275000000002,88.71102748540756L180.30925,84.65622929896112L180.3525,97.86314466012917L180.417375,110.43275477621711L181.066125,100.04322493156057L181.412125,122.26217370762294L181.43374999999997,103.22663951493757L181.52025,73.45225246765122L181.5635,82.00886383663355L181.73649999999998,107.88658482140745L181.801375,104.30247069865044L181.844625,114.04031777917231L182.147375,107.01612705228354L182.4285,116.12320691829358L182.64475,105.60421635372124L182.99075,118.50718828919852L182.99075,128.4172053049149L183.01237500000002,117.29634464613868L183.271875,132.5134785978504L184.093625,108.06656353737243L184.78562499999998,78.54927357389022L185.23975000000002,72.6601543728576L185.28300000000002,73.53127733322941L185.75875,81.24236733715087L185.953375,80.19407575726723L186.36425,78.2655317538989L186.688625,62.997320607543784L186.75349999999997,53.22015189415099L186.861625,73.62491010257285L187.31574999999998,72.39586542878892L187.48875,26.682461620944252L187.553625,67.29782581210505L187.64012499999998,40.4826396917978L188.1375,52.58628573681415L188.202375,61.60186556846628L188.37537500000002,56.81707894043839L188.44025,71.60453547337828L188.548375,62.63455447222019L188.743,64.88499324888548L188.91600000000003,60.44564378737883L188.93762500000003,64.84451756379974L189.283625,52.53452159848706L189.629625,50.956912795312206L190.12699999999998,70.16850700780738L190.25675,60.67210372570153L190.38649999999998,53.29985009132194L191.0785,53.68636431352458L191.40287500000002,58.330474655877765L191.81375,68.56008144253994L192.07325,98.56702437165944L192.15975,115.52922845920926L192.224625,116.30588008104655L192.397625,122.79171447708971L192.722,119.59708595385158L192.76525,124.55117968982464L192.95987499999998,114.27801800103026L193.17612499999998,118.58873333872836L194.387125,110.09084949782097L194.473625,110.56465657288201L194.5385,108.86093280199641L194.798,90.75445679799512L194.81962499999997,107.48719542948736L195.2305,99.1868789699234L195.511625,108.94394899943805L195.641375,89.1316961154558L195.87925,67.72609914998094L196.506375,56.619828297086514L196.65775,42.9677901211565L196.765875,39.20667289539995L196.809125,39.03317485784953L197.30650000000003,62.886223708091634L198.085,76.67443142290524L198.322875,88.73774358859175L198.366125,98.80594764489237L198.409375,102.1695266973701L198.51749999999998,104.51537068641251L198.73375,103.89414320902513L199.014875,100.00711189390542L199.3825,104.28818079639268L199.469,89.2915016929265L200.0745,105.84692097978674L200.658375,123.02920513232971L200.9395,137.32629337367243L201.00437499999998,149.79157599397882L201.220625,138.04945032436405L201.76125000000002,109.27132275102086L201.8045,101.68375359755142L202.1505,90.6670668069548L202.691125,53.98342149818109L202.90737499999997,30.741864711088112L203.253375,39.1988884977184L203.3615,50.26893707770773L203.3615,60.02812945809603L203.642625,66.79003137245054L203.729125,64.45420661675921L203.8805,74.86204677799417L204.334625,93.5700496020943L204.61575,106.21763968451715L205.415875,90.22023036981251L206.151125,67.0053217222285L206.4755,42.950514141746396L206.843125,44.1276729147942L206.86475,65.11137375141189L207.102625,68.41711687899921L207.5135,81.30549791114764L207.55675,73.77313877821024L207.62162500000002,73.07778658676183L208.010875,77.40861396402649L208.097375,86.73569513335711L208.24875,94.65913208197198L208.3785,92.83128073095801L208.573125,98.68231354692715L208.59475,105.60983488455321L208.832625,133.43444112153085L208.85425,104.62078757880303L208.85425,90.26684363236363L208.8975,87.5660252850842L209.09212499999998,81.80380447482334L209.481375,100.99629791500466L209.654375,109.10056148636012L209.80575000000002,105.17474179708417L209.80575000000002,106.60156987624866L210.043625,104.15913897635474L210.15175,123.13481315218851L210.23825,109.8609911337104L210.346375,103.87867337586408L210.865375,87.72406033435344L210.951875,83.20456630273569L210.99512499999997,83.0831408543139L211.29787499999998,102.22695343962098L211.44925,84.00405691470039L211.514125,69.62262463215197L211.6655,74.01252007271775L211.773625,97.7871250523L211.83849999999998,98.38311854422165L211.86012499999998,97.96253828060671L211.90337499999998,67.53351877924743L212.16287499999999,85.49675209528944L212.27100000000002,89.39110197633262L212.31425000000002,89.98277497893426L212.48725,72.72385865385284L212.63862500000002,91.75905733495492L213.027875,86.97855444493189L213.114375,98.57745247074207L213.244125,101.82775855057383L213.763125,109.01357669996415L213.78474999999997,106.56670766776833L213.828,96.08889331557259L214.13075,101.28478802056429L214.541625,100.18626611673766L215.731,96.01835771092988L215.839125,100.74050414291837L216.012125,121.27052055945967L216.03375,135.24300312234402L216.141875,116.18128817220591L216.444625,115.41961779558696L216.81225,115.72366332671322L216.81225,118.50302408476298L216.920375,79.3696087733996L216.942,60.51493617085589L217.3745,61.09461523491643L217.63400000000001,79.00299459507595L217.807,97.97275518066012L217.828625,87.54667939356763L217.91512500000002,106.5336504427728L218.088125,93.38551344647551L218.304375,85.4156883092623L218.563875,87.42922070259125L218.80175,70.24425033964417L219.1045,81.45190375035492L219.23425,90.02064294040063L219.68837499999998,113.37809376285676L219.70999999999998,128.4094265891514L220.164125,118.01178127445334L220.25062499999999,108.93108179349807L221.115625,128.3662805789316L221.13725,130.93187009168713L222.067125,123.77638702955537L222.15362499999998,154.7598278531576L222.629375,129.4443196987596L222.651,125.45077278272092L223.19162500000002,137.7913230865261L223.29975,120.78674175537844L223.840375,102.3906099314183L223.9485,103.44133850040458L224.035,114.0837219303991L224.33775,132.49704020766717L224.748625,160.0682688132679L224.921625,164.82895074342224L225.37575,160.3188498253327L225.89475,99.23708537981273L226.32725,70.54008300334861L226.608375,67.71552768146532L226.803,66.89442585499698L226.86787500000003,46.66985790656409L226.911125,45.88336085514072L227.10575,46.20163142693971L227.17062499999997,23.274868714886622L227.213875,22.843409557559056L227.343625,32.113415021208795L227.5815,56.52269465493782L228.07887499999998,86.48774943426116L228.31674999999998,118.1758173365457L228.706,129.6967724520261L228.879,102.71557379840155L229.246625,87.84529661880933L229.37637500000002,67.43722787391206L229.506125,66.80492442611065L229.917,90.27076055394107L229.981875,77.59708232284058L230.025125,83.66036084056184L230.30625,49.90281106814493L230.58737499999998,36.814117719865834L231.452375,54.19116238108353L231.495625,55.750200396314284L231.53887500000002,84.2529810308342L232.0795,75.86099106475697L232.29575,73.54495654347528L232.46874999999997,75.00083992515373L232.490375,86.3607809317458L232.512,71.08651853635011L232.72825,83.73485980522523L232.793125,87.52545784000262L233.05262499999998,93.89701694385151L233.31212499999998,102.70914824260265L233.33374999999998,88.21296477417508L233.485125,85.00081657060767L233.917625,106.26197178178303L233.9825,90.02258304109994L234.133875,78.89252637493249L234.242,98.64264071300492L234.35012500000002,101.33053064193385L234.39337500000002,94.02086212160106L234.8475,53.911557302690795L234.912375,70.90030112868719L234.95562500000003,59.70404255521568L235.0205,65.68807829527L235.0205,72.94920510884309L235.453,101.80675900736303L235.66925,105.7384992397784L235.950375,116.45412054997439L236.209875,154.1343242439987L236.96675,139.71581230583809L237.074875,141.37253772885558L237.204625,133.6934437476709L237.377625,95.83033478653265L237.550625,155.82374920655218L237.637125,127.41422049698025L237.74525000000003,102.74707502422805L237.810125,79.4219771752072L238.242625,72.84532311733436L238.394,59.032093216888526L238.43725,48.19926177556073L238.502125,28.2163976828229L238.545375,38.72053070153345L239.36712500000002,43.2545732421525L239.36712500000002,49.41191204820305L239.38875000000002,65.65937568463566L239.842875,79.89925425948744L239.886125,97.59608107627665L240.2105,134.98649653004634L240.448375,147.29951079781506L240.51325,161.81291456194396L240.53487500000003,170.38186869851336L240.59975,173.482321048482L241.03225,153.74749591503192L241.20525,148.5179261266126L241.356625,106.23704122979761L241.46474999999998,58.805781118235615L241.486375,76.60667809376812L241.68099999999998,106.6163466072149L241.89725,109.72460092367847L242.005375,106.12545689926388L242.15675000000002,103.45354183690964L242.17837500000002,87.58202533657263L242.610875,92.55521819731543L242.6325,90.53077439426237L242.870375,59.67102910000254L243.10825,43.764398532618145L243.562375,92.58359864546257L243.692125,112.66397695018041L243.71375,120.83597957058657L243.821875,114.45547857773926L243.90837499999998,127.11875072398212L243.92999999999998,111.40771553341747L243.95162499999998,101.53126875116943L243.994875,131.21246866062842L244.124625,139.56377776838116L244.49224999999998,154.92842742173787L244.90312500000002,173.6924999586875L245.314,133.44538362132604L245.314,111.46377290798057L245.335625,132.21705674877325L245.508625,146.69003246022456L245.55187500000002,158.9042964582378L245.941125,128.71489391057096L246.287125,114.97066902756589L246.287125,109.15375477456988L246.330375,91.02325495497465L246.330375,84.4322174114096L246.69799999999998,88.38873150395283L246.76287499999998,120.02386385894545L246.849375,126.72453537061983L246.91425,123.7022484135L247.108875,134.38950901916695L247.47650000000002,119.88580766178667L247.73600000000002,96.33822535702373L247.73600000000002,85.76048113201476L248.12525,90.62214224215995L248.536125,114.21042963797416L248.968625,115.00844697487517L249.0335,82.1385967397904L249.055125,82.00308513215192L249.07675,79.20123776112035L249.271375,78.55087383363777L249.401125,112.69118962962195L249.50924999999998,122.90425066773491L249.55249999999998,96.75809498844038L250.24450000000002,93.7041141471884L250.89325,117.39402049159449L250.9365,116.17773495369991L251.196,41.026539408119106L251.369,-1.4069430801986584L251.58525,7.384743883643523L252.10425,55.185931164966135L252.125875,93.00013725098735L252.19075,124.51495423909371L252.904375,127.48925408378189L253.099,124.13995355843186L253.92075000000003,90.16520454147093L254.331625,87.17610968786524" style="fill: none;" fill="none"></path></g></g></g></g><g opacity="0.20000000298023224"><g><g><g><path stroke="rgb(255, 112, 67)" stroke-width="2px" d="M22.079125,-7.450008980929823L22.10075,93.51098428560155L22.381875,-47.037611356803296L22.641375,-45.83576254865949L23.333375,82.3750916197896L23.419874999999998,212.42509002344946L24.155124999999998,-69.42265865845334L24.371375,16.45244587957862L24.566,-97.85286676457946L24.95525,14.130151518753621L24.976875000000003,120.33947431828292L25.063375,-32.87520137535671L25.366125,70.56410915830307L25.582375,67.53547196622405L26.166249999999998,-34.258269335542366L26.750125,-31.563482399497673L27.420499999999997,7.42843469551633L27.701625,51.866798919226454L27.874624999999998,82.75582142919302L27.961125,51.16814821107047L27.961125,57.28320437031134L28.480125,69.46571032064303L28.609875,76.65905677527189L28.76125,71.98666738825186L28.869375,59.20853672495912L29.345125,75.20990923792124L29.431625,80.67428446454662L29.88575,74.45069063135557L29.929,26.06093728329455L29.950625,52.674774684011936L30.102,28.640705780259225L30.123625,55.79680757543872L30.210124999999998,31.497632980346708L30.296625,62.868291418467265L30.3615,38.26234041793006L30.66425,66.328414318817L31.832,-11.665110734956585L32.13475,-12.92225803434846L32.199625,21.021748703505324L32.459125,28.149076148867636L32.48075,27.343765371612164L32.588875,30.911941402724835L33.107875,83.70982639704432L33.151125,66.4949154715453L33.43225,-3.980982599513851L33.497125,66.17081664715495L33.562,3.802779728812851L34.124249999999996,27.793300313608995L34.1675,39.84304143062661L34.189125,35.947071933320615L34.38375,50.40450814792089L34.5135,23.454216071537587L35.07575,67.05704613668578L35.248749999999994,91.01189222931862L35.85425,87.8470984016146L35.87587499999999,120.38344661252839L36.027249999999995,130.32336555634225L36.0705,164.03267168785843L36.5895,59.34614699014597L36.676,74.49381497502327L36.913875000000004,50.86918506452017L37.043625000000006,107.1657747104764L37.15175,64.70955553012236L37.476125,90.68070696081433L37.58425,67.85781432156053L37.735625,75.68760825267859L38.081625,104.40878454276493L38.406,59.41864676454239L38.579,94.33270896332604L38.751999999999995,156.7141919551151L38.79525,67.79585336148739L38.96825,122.18509931862354L39.3575,82.62323829957418L39.811625,97.22543179137367L39.898125,97.55849466472864L40.09275,46.37401734824692L40.200874999999996,44.34468991202968L40.35225,-21.847301272409283L40.373875,93.94471100611347L40.395500000000006,100.81795611764703L40.87125,45.16798935511284L41.368625,43.014982270342955L41.563250000000004,27.578042002660908L41.649750000000004,49.49786727662598L41.801125,10.177005925348851L41.82275,57.81099303705352L41.90925,75.52316640849624L42.341750000000005,65.08235094483409L42.536375,67.47217851238592L42.644499999999994,31.5830942850028L42.666125,95.91007874161005L43.25,106.21582779181855L43.37975,73.61146183099065L43.63925,113.10027796455792L44.07175,68.3699159026146L44.15825,83.83653444051743L44.2015,93.682391438101L44.288000000000004,59.36540758184026L44.85025,62.92498297137874L44.93675,66.966012585376L45.261125,103.38809431876454L45.304375,69.76382551661561L45.390875,99.02871983072586L45.520625,66.75008802754539L45.736875,104.11151729737009L45.80175,88.86960566256728L45.80175,96.39383454620838L46.018,106.09293552594525L46.082875,110.15062131200517L46.4505,127.7623731078846L46.558625,111.421214684844L46.68837499999999,131.57560685596295L46.9695,122.20260344126395L47.077625000000005,139.072035074234L47.44525,130.48932159798485L47.466875,122.89780177921057L47.4885,137.89822920305386L47.96425,97.89179980967725L48.13725,97.41737146143402L48.158874999999995,94.42004787283284L48.223749999999995,92.07388976003442L48.483250000000005,77.03839352301188L48.504875,71.07566562827144L48.613,162.910711937717L48.634625,133.9393902271986L48.677875,122.50241453839199L48.82925,118.08834723808936L48.894125,139.9018758503454L49.00225,119.6166570186615L49.153625,171.6734332080398L49.2185,129.09432176181247L50.64575,107.28794016156877L50.840375,150.25989499688148L51.25125,101.63041390691484L51.402625,101.8634791799954L51.77025,72.76641851237841L52.6785,13.599092185497312L52.938,105.46739027116979L53.694875,80.21699683155332L53.781375000000004,31.991806463471505L54.170625,100.93545784056187L54.473375000000004,96.66384623731885L54.495,116.06634851757968L55.122125,96.87413798059735L55.792500000000004,110.33020513078995L56.160125,82.61954365777119L56.18175,95.96356019590583L56.549375,5.9247154816985415L56.6575,9.987307267529644L56.679125,26.21247816511564L56.70075,58.99091626597303L56.722375,-6.424836732447119L56.722375,2.853075081748642L57.3495,97.18527527472801L57.782,111.86087705940007L58.128,84.66897963626045L58.409124999999996,65.53800324457033L58.474,104.2295035634722L58.711875,104.63906369251865L58.9065,127.12828777943338L59.0795,175.13179963933567L59.2525,140.5864142381719L59.5985,133.48488871753216L60.550000000000004,98.0294100748641L60.744625,68.06901458331518L60.76625,75.89462932944298L60.85275,74.04385605773754L61.1555,140.4024089628032L61.306875000000005,136.384152878608L61.912375,65.72655111231975L61.955625,97.07019626774958L62.06375,114.01503493423972L62.626000000000005,85.69693800806999L62.863875,103.42637323055948L62.907125,105.37169299168247L62.928749999999994,165.5125877176012L63.036875,127.05330472120215L63.404500000000006,130.23869163436547L63.53425,121.3786983191967L64.0965,112.85655274135726L64.39925,59.65843507434643L64.702,46.784667699464734L65.112875,109.82997485782418L65.221,93.12843743924584L65.26425,88.550836813237L65.86975,138.73188575676508L65.934625,107.50659027482781L66.04275,147.89411288499832L66.84287499999999,176.09234594021524L66.972625,129.15925054890766L66.99425,83.10971965960093L67.03750000000001,142.44118499117238L67.059125,121.13085447890417L67.318625,74.26208219570773L67.3835,78.06623075902462L67.405125,89.22937897912094L67.707875,102.71167202932494L67.751125,65.83248436663833L68.16199999999999,118.73266854137182L68.29175000000001,135.19829399564435L68.313375,69.32876630233868L68.854,125.89724524425608L69.1135,174.53369164253982L69.2,138.54812275299003L69.546,34.91281450007645L70.19475,115.24123203754425L70.36775,122.58508971972124L70.605625,118.96179690105573L71.124625,75.74078686748233L71.14625000000001,56.25439804792404L71.66525,112.39266320743731L72.05449999999999,175.10993462800977L72.09775,142.59187792241573L72.18424999999999,228.2660787414227L72.57350000000001,158.486832637872L72.638375,169.3840272160513L72.984375,114.09686216499124L73.070875,142.65359661089522L73.39525,139.87304553070237L73.525,112.38351745477743L73.546625,97.38642126534666L73.95750000000001,49.23893951092447L74.08725000000001,57.61463191040926L74.54137499999999,129.34295298478432L75.276625,60.94635086613043L75.36312500000001,108.99868045215095L75.406375,80.02124138389316L76.22812499999999,109.11539479238647L76.24974999999999,152.5575382230537L76.24974999999999,160.9951310147132L76.833625,102.31707217118569L77.136375,114.94917363141263L77.85000000000001,97.53693249289478L78.260875,154.59328585650238L79.23400000000001,122.85958343531402L79.40700000000001,158.22639067471025L79.558375,88.55465259083681L80.22875,116.04514975313629L80.46662500000001,37.064307387386066L81.24512499999999,149.30970580662998L81.26675,139.21340054912224L81.61275,198.89301016075268L81.87225000000001,151.41104847405637L82.02362500000001,30.272102123924668L82.499375,127.67915281546966L82.82375,151.80171141879896L82.867,120.26776192656584L83.018375,197.61987293618063L83.4725,131.53641942569186L83.494125,173.35582772216625L84.078,82.76127254004989L84.424,87.13548616319895L84.597,82.32536537519522L84.64025,52.77562023486412L85.007875,42.89469442410129L85.0295,68.55131675835166L85.094375,62.965563463313245L85.483625,134.6427046635321L85.72149999999999,136.4882085280759L85.981,149.85481689231736L86.02425,83.74132170421737L86.08912500000001,175.2878831135375L86.391875,183.37212278587475L86.608125,196.9794885462948L86.651375,173.52160206011362L86.82437499999999,130.25213770781244L86.867625,107.49774736166L87.34337500000001,123.31057200687272L87.7975,111.82532370303358L87.905625,93.91654693335295L88.44625,89.17135493244443L88.6625,133.35684818029404L88.79225,102.39768804396901L88.857125,67.08975280182703L89.0085,131.46204204644474L89.61399999999999,82.6171815097332L89.8735,0.7337437484945895L89.91675,25.338725662657197L90.17625,6.647290509726332L90.306,20.433210434658207L90.41412500000001,65.74538772872518L90.5655,59.70537519561394L90.825,59.899253038423424L91.863,142.88163474840775L91.90625,122.2996937824147L92.12249999999999,153.8813707785947L92.706375,96.48074948042631L92.8145,52.66344848700933L93.009125,98.23685512691736L93.593,170.50568412670066L93.701125,149.06937238574028L93.83087499999999,182.91992285634788L93.8525,163.56811590705598L94.02550000000001,143.74315253538742L94.04712500000001,202.3510737525565L94.17687500000001,197.36124800997118L94.479625,165.1019373663834L94.522875,234.02663099127153L94.631,95.59227897865432L95.496,91.97855588793755L95.647375,125.4156698840005L95.733875,80.43473842633622L95.88525,97.41622067136424L96.59887499999999,121.82587111315556L96.94487500000001,85.95253453935895L97.226,105.28084114406789L97.463875,125.59367893742663L98.458625,126.87390260611261L98.545125,20.777236097625348L98.783,118.91818801420075L98.977625,118.13056306328092L99.648,105.48331962845154L99.972375,64.33597273273128L100.55625,87.8108787983656L100.66437499999999,110.13584274479321L100.85900000000001,124.9127746235047L100.967125,157.55457154554978L100.98875000000001,179.59208024612494L101.183375,134.14629016816616L101.442875,91.91399050823279L101.6375,111.82901834483657L102.07,84.7311223000288L102.09162500000001,156.54175514834265L102.178125,126.58874894039971L102.28625,156.54841761716773L102.307875,160.98223005235192L102.480875,82.11513419981513L102.826875,153.8407902866602L103.043125,58.72411467347827L103.8865,71.00837469313826L104.27575,64.50338240393572L104.44875,127.12610733509064L104.62175,65.22559402457307L104.729875,121.92586871342999L104.79475,35.489542028733666L105.075875,28.592069757836214L105.184,-23.428123420902637L105.378625,55.88517613921847L105.53,41.4571153553469L105.74625,51.60011846252851L105.83275,71.21684939946446L105.94087499999999,92.34232668578625L106.30850000000001,84.78321069266114L106.373375,117.33033998949186L107.022125,45.34672522331988L107.04374999999999,71.70036293246918L107.38975,104.75171998356069L107.930375,101.53326299786568L108.016875,126.28899841117007L108.406125,89.46777422726154L108.51425,85.4417654520699L108.644,111.78528832218475L108.838625,70.0352908372879L110.07125,84.75001948433263L110.11449999999999,103.01099858326572L110.265875,97.96799422587667L110.438875,116.50116546026297L110.50375000000001,110.8071773307664L110.957875,100.3298999922616L111.130875,148.0750291975481L111.260625,131.92750634572334L111.649875,128.7425434078489L111.71475,143.31760248116083L111.73637500000001,53.38590237924032L111.80125,58.82168955781631L112.03912500000001,92.5923509704215L112.104,61.73409695284708L112.19049999999999,71.4671765235918L113.163625,134.91937882346764L113.206875,155.20284118609766L113.509625,124.47184032308203L113.552875,161.87948289939334L113.61775,137.06899410592658L114.24487500000001,162.9087737649679L114.52600000000001,129.9318546610219L114.6125,139.06288932157412L114.98012499999999,166.10542630723543L114.98012499999999,172.2842604635017L115.08825,142.6061719464404L115.499125,111.36852061322756L115.585625,144.3525867291859L115.62887500000001,47.9418173985822L116.493875,24.17751791434631L116.775,103.7310297595603L116.969625,128.22196232101746L117.01287500000001,141.82193879783154L117.229125,82.27473061212473L117.358875,113.98341849126986L117.618375,90.55617936168399L117.68325,168.28266055136916L117.877875,106.4738470390439L117.8995,151.94119928883651L117.92112499999999,193.36534148028917L118.159,156.9619752275092L118.22387499999999,134.53453039697237L118.483375,138.42916740051336L118.656375,150.79216568810597L118.851,157.72113326617648L118.915875,89.02102540859154L119.02399999999999,145.3696428792817L119.24025,173.91359749862124L119.521375,167.69109388760157L119.60787499999999,82.86042218974657L119.84575000000001,21.81821656759297L120.602625,129.7901863466416L121.38112500000001,110.61554050019808L121.446,92.6016784267766L121.74875,80.08041622063942L121.96499999999999,127.56764731449739L122.24612499999999,90.99590230413845L122.35425000000001,116.07888607255049L122.70025,117.02095916441507L122.91650000000001,58.321580420647365L123.39225,36.012121856212644L123.413875,66.41272483340333L123.63012499999999,96.70569865511996L123.71662500000001,69.70168285284724L123.99775,159.07343273397L124.75462499999999,16.830934676740867L124.841125,22.29821716248992L124.92762499999999,26.96430748807535L125.057375,31.63257825800352L125.29525,19.475268553410274L125.42500000000001,77.49410639064654L125.706125,20.40135172009471L125.965625,21.94674164801839L126.0305,39.08454963884185L126.28999999999999,71.8035100634609L126.484625,83.93180774471588L127.2415,93.35538535458701L127.71724999999999,142.05282362656934L128.02,150.9670252108148L128.041625,158.43728809697285L128.47412500000002,118.40336087771824L128.733625,103.27131941063064L129.44725,101.47093863040209L130.290625,168.90208844840524L130.333875,171.66495370226244L130.377125,161.64193560183045L130.5285,149.3759670874902L130.65825,-18.282335339912322L130.89612499999998,-0.7561054165873884L130.961,119.6977574346321L131.13400000000001,106.83719386160374L131.307,146.30378157645464L131.56650000000002,76.75154395614352L131.7395,158.41360604869465L132.38825,135.01119975745678L132.518,175.0202941383634L132.73425,114.386134447796L132.799125,110.27442209635461L132.864,155.5300289733069L134.03175000000002,36.83087870691506L134.05337500000002,56.105340449937756L134.29125,15.124313003250563L134.3345,34.54165441862176L134.81025,116.64828488550015L134.918375,155.1387603495802L135.0265,39.01423030878817L135.06975,58.403468219297295L135.394125,129.9312489820378L135.480625,98.7724570525544L135.740125,59.26474373468332L135.740125,67.17902988408294L135.869875,124.50497096351214L136.215875,0.3046807561602236L136.302375,12.082956552505522L136.49699999999999,36.066511828984545L136.54025000000001,33.585771845919766L136.648375,113.63745465555361L136.734875,47.624623314610574L136.821375,152.9136168978044L136.99437500000002,101.82532140399728L137.31875,111.77565802633761L137.426875,110.48071635833807L137.83775,128.98820680379868L137.92425,79.34924055103745L137.945875,64.81966796943121L138.18375,119.87824977189302L138.248625,93.59577934337514L138.551375,97.88404711868081L138.6595,136.31268275848456L138.724375,166.05454927257128L138.83249999999998,114.36529909074306L138.940625,52.18157028726171L139.092,94.38588757812977L139.50287500000002,61.958440448556644L139.5245,90.3603633461254L139.892125,10.619878398520626L139.935375,56.94741594152792L140.194875,117.77254621578113L140.25975,59.354505360126495L140.281375,119.78709508478642L140.71387499999997,75.35920910750117L140.77875,93.38385226683957L140.800375,111.65161497039455L140.9085,76.61466050573759L140.973375,22.582159470234615L141.12475,51.08262633851598L141.21125,80.31196729625974L141.38425,87.49138313425439L141.665375,19.19405180109399L141.85999999999999,38.762691826692674L141.96812500000001,-7.343954590814434L142.16275,1.5185825760875673L142.443875,96.4420465933425L142.703375,109.3403439670801L142.725,92.1055667709027L142.725,99.33325522392988L143.37375,93.34932856474605L143.395375,67.55249154567719L143.50349999999997,126.14557362773587L143.914375,110.06861237755842L144.455,136.8196360681738L145.08212500000002,183.73540904053618L145.471375,45.29330433692252L145.666,62.636558639151716L145.88225,67.22911953606777L146.185,-5.438306803149828L146.206625,58.76493743700641L146.29312499999997,39.88665031748161L146.31474999999998,71.96801247554167L146.48775,50.407778814435005L146.57424999999998,70.60844485993896L146.682375,81.02909121343069L147.00675,64.03773640096188L147.43925,49.46364641402448L147.56900000000002,32.83745546106783L147.69875,64.94468011174884L147.806875,67.92044152851615L147.95825,101.29765387305191L147.979875,122.63384687794105L148.369125,74.49417838241372L148.758375,75.95180542554174L149.061125,114.37038679420948L149.2125,132.53500236677272L149.536875,110.30531172454356L149.796375,76.2398057824799L149.99099999999999,58.56778892768281L150.35862500000002,57.31797034399851L150.63975,113.69699289969034L150.791125,128.85144448918953L150.81275,155.83335300854273L151.029,167.82131486918243L151.093875,182.29776940388336L151.24525,95.18617121981723L151.353375,157.13871235506872L151.396625,155.2991441445691L151.483125,208.98768008500335L151.67775,84.22053491643496L151.8075,209.10948212870528L152.86712500000002,107.92777944036892L153.0185,89.98042091940131L153.14825,100.57047568474496L153.19150000000002,71.55057851970196L153.3645,44.88992213351386L153.7105,1.7047682957989991L153.818625,54.11950076477869L154.510625,103.66834198470626L154.53225,85.98033520472902L154.70524999999998,74.09552047508105L154.87825,134.16125043907334L155.65675000000002,101.95911589158433L155.74325000000002,114.3305331170559L156.08925,109.89417683013848L156.28387500000002,210.483101496739L156.327125,116.01662227298532L156.565,101.22957555523939L157.257,54.50489430235966L157.3435,105.55630394603524L157.581375,50.05036764591932L157.81924999999998,50.587786608508665L158.12199999999999,45.42128430626224L158.619375,122.34257585448877L158.922125,169.03121920781473L159.570875,173.5945258097989L159.743875,174.55828220929416L160.06825,111.67996074685028L160.392625,39.168617881834535L160.652125,48.041633295161375L160.717,64.00721018016338L160.84675,41.86285970679353L160.99812500000002,45.5302459555013L161.063,47.88028041379795L161.517125,70.57701012066434L161.517125,78.62430337497167L161.733375,89.87757662790162L162.3605,123.00755081112894L162.555125,126.78292962270123L162.83625,121.30747047066689L162.857875,67.36884967769895L162.944375,117.89786119759083L163.07412499999998,110.89378942549227L163.203875,109.62380173163754L163.35524999999998,98.18967273405619L163.39849999999998,104.31042227574757L163.593125,119.21472844481468L163.78775000000002,147.32029261546475L163.982375,70.36926222911904L164.13375,51.95395612503803L164.241875,61.63549241423607L164.285125,52.48210819917067L164.414875,139.2811154595443L164.414875,146.237459727696L164.458125,89.94868334063462L164.760875,131.4643436265843L165.042,109.25451925503356L165.409625,111.40153011786086L165.56099999999998,132.97321111176694L165.95025,126.1576266395194L166.53412500000002,109.70677975245884L166.57737500000002,104.848446917321L166.793625,42.17587460577491L167.312625,166.1775626742414L167.637,176.9201879756791L168.09112499999998,204.73805462888305L168.63174999999998,107.15202579753739L168.80475,11.506229023848277L168.89124999999999,112.16329257615975L168.956125,46.714832912598354L169.49675,128.2028834330184L169.518375,87.9331048173564L169.561625,122.62312635992254L169.69137500000002,63.900126135775025L169.994125,69.38479160836766L170.25362500000003,123.42322829791478L170.340125,93.15272516650813L170.57799999999997,134.64670214482715L170.945625,122.24772652557917L171.31325,8.773950558687972L171.57275,48.79630930934633L171.594375,52.51445145692146L171.74575,21.06687178782056L172.308,67.46509206827197L172.329625,72.78567910407271L172.52425,94.54530228674412L172.5675,74.07553306860584L172.654,89.72948811628989L172.675625,43.33096499634641L172.74050000000003,106.06525599637202L172.95675,139.4645150559289L172.978375,142.49781597618545L173.865,121.10468914679117L173.92987499999998,-64.61302241363691L174.73,84.42386135139637L175.37875,81.93954786232538L175.443625,111.16428565979002L175.703125,33.10486273254668L176.092375,117.02101973231349L176.114,76.2347786469119L176.178875,125.32602939435412L176.265375,106.6716012273516L176.45999999999998,67.85654239569392L176.58975,80.8570178140487L176.654625,102.97526352320398L176.870875,121.48572179568664L177.28175,29.197021927152377L177.822375,68.01389779576235L178.081875,55.365624706660014L178.34137500000003,60.30202956284798L178.730625,38.10450047467438L178.990125,16.858674774212517L179.01175,79.44257568248682L179.8335,62.625050738453865L179.898375,82.96902043159518L180.22275000000002,119.77056004852057L180.30925,78.5740320192916L180.3525,117.67351770188127L180.417375,129.28716995034898L181.066125,84.45893016457558L181.412125,155.59059687171663L181.43374999999997,74.67333822590965L181.52025,28.790671896721648L181.5635,94.84378089010715L181.73649999999998,146.70316629856825L181.801375,98.92629951451505L181.844625,128.64708839995518L182.147375,96.47984096195016L182.4285,129.78382671730859L182.64475,89.82573050686291L182.99075,137.8616461924144L182.99075,143.28223082848956L183.01237500000002,100.61505365797451L183.271875,155.33917952541793L184.093625,71.39619094665561L184.78562499999998,34.27333862866675L185.23975000000002,63.82647557130883L185.28300000000002,74.83796177378721L185.75875,92.80900234303303L185.953375,78.62163838744164L186.36425,75.37271574884653L186.688625,40.09500388801101L186.75349999999997,38.55439882406168L186.861625,104.23204741520541L187.31574999999998,70.55229841811317L187.48875,-41.88764409082273L187.553625,128.2208720988461L187.64012499999998,0.25986051133702404L188.1375,70.74175480433874L188.202375,75.12523531594448L188.37537500000002,49.639898998396745L188.44025,93.78572027278798L188.548375,49.179582970482954L188.743,68.2606514138835L188.91600000000003,53.786619595118935L188.93762500000003,71.44282822843108L189.283625,34.0695276505181L189.629625,48.590499590550166L190.12699999999998,98.9858983265502L190.25675,46.427498802542715L190.38649999999998,42.24146963975261L191.0785,54.26613564682859L191.40287500000002,65.29664016940765L191.81375,83.90449162253313L192.07325,143.57743876533848L192.15975,140.9725345905338L192.224625,117.47085751380239L192.397625,132.52046607115437L192.722,114.80514316899435L192.76525,131.98232029378414L192.95987499999998,98.86827546783856L193.17612499999998,125.05480634527547L194.387125,97.34402373645986L194.473625,111.27536718547343L194.5385,106.3053471456681L194.798,63.59474279199328L194.81962499999997,132.58630337672574L195.2305,86.73640428057737L195.511625,123.57955404371023L195.641375,59.41331678948234L195.87925,35.61770370176862L196.506375,39.960422017744634L196.65775,22.4897328572614L196.765875,33.564997056765236L196.809125,38.772927801523906L197.30650000000003,98.6657969834549L198.085,97.3567429951259L198.322875,106.83271183712142L198.366125,113.90825372934341L198.409375,107.21489527608666L198.51749999999998,108.03413666997636L198.73375,102.9623019929443L199.014875,94.17656492122582L199.3825,110.70978415012358L199.469,66.79648303772721L200.0745,130.680049910077L200.658375,148.8026313611439L200.9395,158.7719257356865L201.00437499999998,168.48949992443832L201.220625,120.43626181994165L201.76125000000002,66.10413139100585L201.8045,90.3023998673473L202.1505,74.1420366210597L202.691125,-1.0420464649796202L202.90737499999997,-4.120470469551407L203.253375,51.88442417766369L203.3615,66.87400994769166L203.3615,74.66691802867823L203.642625,76.93288424398217L203.729125,60.95046948322229L203.8805,90.47380701984677L204.334625,121.6320538382445L204.61575,125.18902480815137L205.415875,66.22411639775548L206.151125,32.18295875085252L206.4755,6.868302771023366L206.843125,45.8934110743659L206.86475,96.58692500633853L207.102625,73.37573157038007L207.5135,100.6380694593702L207.55675,62.47460007880416L207.62162500000002,72.03475829958916L208.010875,83.90485502992358L208.097375,100.72631688735314L208.24875,106.54428750489438L208.3785,90.08950370443719L208.573125,107.45886277088097L208.59475,116.00111689099244L208.832625,175.17135047699722L208.85425,61.40030726471119L208.85425,68.73592771270447L208.8975,83.51479776416507L209.09212499999998,73.16047325943198L209.481375,129.78503807527676L209.654375,121.25695684339317L209.80575000000002,99.2860122631703L209.80575000000002,108.74181199499539L210.043625,100.49549262651375L210.15175,151.59832441593917L210.23825,89.95025810599327L210.346375,94.90519673909459L210.865375,63.49214077208724L210.951875,76.42532525530882L210.99512499999997,82.90100268168109L211.29787499999998,130.9426723175815L211.44925,56.669712127319414L211.514125,48.05047620832923L211.6655,80.59736323356628L211.773625,133.4490325216736L211.83849999999998,99.27710878210408L211.86012499999998,97.33166788518429L211.90337499999998,21.889989527208485L212.16287499999999,112.44160206935234L212.27100000000002,95.23262679789748L212.31425000000002,90.87028448283672L212.48725,46.835484166230486L212.63862500000002,120.3118553566081L213.027875,79.80780010989733L213.114375,115.97579950945718L213.244125,106.70321767032146L213.763125,119.79230392404965L213.78474999999997,102.89640411947454L213.828,80.37217178727899L214.13075,109.07863007805176L214.541625,98.53848326099771L215.731,89.76649510221822L215.839125,107.82372379090104L216.012125,152.06554518427166L216.03375,156.20172696667058L216.141875,87.58871574699879L216.444625,114.27711223065853L216.81225,116.17973162340266L216.81225,122.67206522183758L216.920375,20.66948580635446L216.942,32.23292726704054L217.3745,61.964133831007146L217.63400000000001,105.86556363531521L217.807,126.42739605903625L217.828625,71.90756571292877L217.91512500000002,135.01410701658043L218.088125,73.66330795202937L218.304375,73.46095060344253L218.563875,90.44951929258448L218.80175,44.46679479522365L219.1045,98.26338386642081L219.23425,102.8737517254693L219.68837499999998,148.41426999654087L219.70999999999998,150.9564258285931L220.164125,102.41531330240625L220.25062499999999,95.31003257206507L221.115625,157.5190787570817L221.13725,134.78025436082055L222.067125,113.04316243635756L222.15362499999998,201.23498908856084L222.629375,91.47105746716261L222.651,119.46045240866286L223.19162500000002,156.30214854223385L223.29975,95.27986975865704L223.840375,74.79641219547815L223.9485,105.01743135388408L224.035,130.04729707539082L224.33775,160.11701762356927L224.748625,201.42511172166888L224.921625,171.96997363865373L225.37575,153.55369844819816L225.89475,7.614438711532557L226.32725,27.494579438652323L226.608375,63.47869469864028L226.803,65.66277311529431L226.86787500000003,16.33300598391466L226.911125,44.70361527800563L227.10575,46.67903728463821L227.17062499999997,-11.115275353193255L227.213875,22.196220821567948L227.343625,46.018423216683516L227.5815,93.13661410553115L228.07887499999998,131.43533160324606L228.31674999999998,165.70791918997253L228.706,146.97820512524672L228.879,62.243775817964774L229.246625,65.53988084942102L229.37637500000002,36.82512475656614L229.506125,65.85646925440858L229.917,125.46951474568672L229.981875,58.586564976189834L230.025125,92.75527861714363L230.30625,-0.7335135904805554L230.58737499999998,17.181077697447392L231.452375,80.2567293729101L231.495625,58.088757419160444L231.53887500000002,127.00715198261396L232.0795,63.273006115640925L232.29575,70.07090476155281L232.46874999999997,77.18466499767132L232.490375,103.40069244163377L232.512,48.17512494325641L232.72825,102.70737170853785L232.793125,93.21135489216871L233.05262499999998,103.45435559962476L233.31212499999998,115.92734519072941L233.33374999999998,66.4686895715339L233.485125,80.1825942652566L233.917625,138.15370459854603L233.9825,65.66349993007525L234.133875,62.197441375681336L234.242,128.2678122201136L234.35012500000002,105.36236553532737L234.39337500000002,83.05635934110198L234.8475,-6.252399925674666L234.912375,96.38341686768192L234.95562500000003,42.9096546950085L235.0205,74.66413190535135L235.0205,83.84089532920294L235.453,145.09308985514298L235.66925,111.63610958840165L235.950375,132.52755251526833L236.209875,210.6546297850353L236.96675,118.0880443985973L237.074875,143.85762586338177L237.204625,122.17480277589388L237.377625,39.035671344825204L237.550625,245.81387083658146L237.637125,84.79992743262224L237.74525000000003,65.74635681509972L237.810125,44.43433040167605L238.242625,62.98034203052521L238.394,38.31224836621968L238.43725,31.95001461356881L238.502125,-1.7578984562839537L238.545375,54.47673022959914L239.36712500000002,50.05563705308097L239.36712500000002,58.647920257278855L239.38875000000002,90.03057113928455L239.842875,101.25907212176493L239.886125,124.14132130146027L240.2105,191.07211971070083L240.448375,165.76903219946792L240.51325,183.58302020813736L240.59975,178.1329995734351L241.03225,124.1452582148569L241.20525,140.67357144398346L241.356625,42.81571388457502L241.46474999999998,-12.341109049107303L241.486375,103.30802355706692L241.68099999999998,151.63084937738518L241.89725,114.38698239837373L242.005375,100.726740862642L242.15675000000002,99.44566924337829L242.17837500000002,63.77475058606694L242.610875,100.01500748842955L242.6325,87.49410868968282L242.870375,13.38141115861282L243.10825,19.90445268154147L243.562375,165.81239881472925L243.692125,142.784544407257L243.71375,133.0939835011959L243.821875,104.88472708846841L243.90837499999998,146.11365894334656L243.92999999999998,87.84116274757045L243.95162499999998,86.71659857779741L243.994875,175.73426852481703L244.124625,152.0907414300101L244.49224999999998,177.975401901773L244.90312500000002,201.83860876411197L245.314,73.07470911528382L245.314,78.49135683796234L245.335625,163.34698250996212L245.508625,168.39949602740148L245.55187500000002,177.22569245525767L245.941125,83.4307900890708L246.287125,94.3543317030583L246.287125,100.4283833950758L246.330375,63.82750522558179L246.330375,74.54566109606199L246.69799999999998,94.32350264276776L246.76287499999998,167.47656239143438L246.849375,136.77554263813153L246.91425,119.16881797782011L247.108875,150.4203999276672L247.47650000000002,98.13025562571627L247.73600000000002,61.01685189987934L247.73600000000002,69.89386479450124L248.12525,97.91463390737772L248.536125,149.59286073169537L248.968625,116.20547298022679L249.0335,32.833821387163255L249.055125,81.79981772069421L249.07675,74.99846670457296L249.271375,77.57532794241395L249.401125,163.90166332359823L249.50924999999998,138.22384222490444L249.55249999999998,57.53886146949871L250.24450000000002,89.12314288531032L250.89325,152.92888000820363L250.9365,114.35330664685793L251.196,-71.70025391025197L251.369,-65.05716681267532L251.58525,20.572274329406895L252.10425,126.88771208695002L252.125875,149.7214463800192L252.19075,171.78717972125324L252.904375,131.95070385081425L253.099,119.11600277040685L253.92075000000003,39.20308101602964L254.331625,82.69246740745648" style="fill: none;" fill="none"></path></g></g></g></g></g></g><g transform="translate(48, 177)" clip-path="url(#clip_1)"><clipPath id="clip_1"><rect width="281" height="22"></rect></clipPath><g><g><line x1="0" y1="0" x2="0" y2="5" style="visibility: inherit;" fill="rgb(0, 0, 0)" stroke="rgb(204, 204, 204)" stroke-width="1px"></line><line x1="21.625" y1="0" x2="21.625" y2="5" style="visibility: inherit;" fill="rgb(0, 0, 0)" stroke="rgb(204, 204, 204)" stroke-width="1px"></line><line x1="43.25" y1="0" x2="43.25" y2="5" style="visibility: inherit;" fill="rgb(0, 0, 0)" stroke="rgb(204, 204, 204)" stroke-width="1px"></line><line x1="64.875" y1="0" x2="64.875" y2="5" style="visibility: inherit;" fill="rgb(0, 0, 0)" stroke="rgb(204, 204, 204)" stroke-width="1px"></line><line x1="86.5" y1="0" x2="86.5" y2="5" style="visibility: inherit;" fill="rgb(0, 0, 0)" stroke="rgb(204, 204, 204)" stroke-width="1px"></line><line x1="108.125" y1="0" x2="108.125" y2="5" style="visibility: inherit;" fill="rgb(0, 0, 0)" stroke="rgb(204, 204, 204)" stroke-width="1px"></line><line x1="129.75" y1="0" x2="129.75" y2="5" style="visibility: inherit;" fill="rgb(0, 0, 0)" stroke="rgb(204, 204, 204)" stroke-width="1px"></line><line x1="151.375" y1="0" x2="151.375" y2="5" style="visibility: inherit;" fill="rgb(0, 0, 0)" stroke="rgb(204, 204, 204)" stroke-width="1px"></line><line x1="173" y1="0" x2="173" y2="5" style="visibility: inherit;" fill="rgb(0, 0, 0)" stroke="rgb(204, 204, 204)" stroke-width="1px"></line><line x1="194.625" y1="0" x2="194.625" y2="5" style="visibility: inherit;" fill="rgb(0, 0, 0)" stroke="rgb(204, 204, 204)" stroke-width="1px"></line><line x1="216.25" y1="0" x2="216.25" y2="5" style="visibility: inherit;" fill="rgb(0, 0, 0)" stroke="rgb(204, 204, 204)" stroke-width="1px"></line><line x1="237.875" y1="0" x2="237.875" y2="5" style="visibility: inherit;" fill="rgb(0, 0, 0)" stroke="rgb(204, 204, 204)" stroke-width="1px"></line><line x1="259.5" y1="0" x2="259.5" y2="5" style="visibility: inherit;" fill="rgb(0, 0, 0)" stroke="rgb(204, 204, 204)" stroke-width="1px"></line><line x1="281.125" y1="0" x2="281.125" y2="5" style="visibility: inherit;" fill="rgb(0, 0, 0)" stroke="rgb(204, 204, 204)" stroke-width="1px"></line></g><g transform="translate(0, 8)"><text x="0" y="0" dx="0em" dy="0.95em" style="text-anchor: middle; visibility: hidden; font-family: &quot;Helvetica Neue&quot;, sans-serif; font-size: 12px; font-weight: 200;" fill="rgb(50, 49, 63)" stroke="none" stroke-width="1px">-1k</text><text x="21.625" y="0" dx="0em" dy="0.95em" style="text-anchor: middle; visibility: inherit; font-family: &quot;Helvetica Neue&quot;, sans-serif; font-size: 12px; font-weight: 200;" fill="rgb(50, 49, 63)" stroke="none" stroke-width="1px">0</text><text x="43.25" y="0" dx="0em" dy="0.95em" style="text-anchor: middle; visibility: hidden; font-family: &quot;Helvetica Neue&quot;, sans-serif; font-size: 12px; font-weight: 200;" fill="rgb(50, 49, 63)" stroke="none" stroke-width="1px">1k</text><text x="64.875" y="0" dx="0em" dy="0.95em" style="text-anchor: middle; visibility: inherit; font-family: &quot;Helvetica Neue&quot;, sans-serif; font-size: 12px; font-weight: 200;" fill="rgb(50, 49, 63)" stroke="none" stroke-width="1px">2k</text><text x="86.5" y="0" dx="0em" dy="0.95em" style="text-anchor: middle; visibility: hidden; font-family: &quot;Helvetica Neue&quot;, sans-serif; font-size: 12px; font-weight: 200;" fill="rgb(50, 49, 63)" stroke="none" stroke-width="1px">3k</text><text x="108.125" y="0" dx="0em" dy="0.95em" style="text-anchor: middle; visibility: inherit; font-family: &quot;Helvetica Neue&quot;, sans-serif; font-size: 12px; font-weight: 200;" fill="rgb(50, 49, 63)" stroke="none" stroke-width="1px">4k</text><text x="129.75" y="0" dx="0em" dy="0.95em" style="text-anchor: middle; visibility: hidden; font-family: &quot;Helvetica Neue&quot;, sans-serif; font-size: 12px; font-weight: 200;" fill="rgb(50, 49, 63)" stroke="none" stroke-width="1px">5k</text><text x="151.375" y="0" dx="0em" dy="0.95em" style="text-anchor: middle; visibility: inherit; font-family: &quot;Helvetica Neue&quot;, sans-serif; font-size: 12px; font-weight: 200;" fill="rgb(50, 49, 63)" stroke="none" stroke-width="1px">6k</text><text x="173" y="0" dx="0em" dy="0.95em" style="text-anchor: middle; visibility: hidden; font-family: &quot;Helvetica Neue&quot;, sans-serif; font-size: 12px; font-weight: 200;" fill="rgb(50, 49, 63)" stroke="none" stroke-width="1px">7k</text><text x="194.625" y="0" dx="0em" dy="0.95em" style="text-anchor: middle; visibility: inherit; font-family: &quot;Helvetica Neue&quot;, sans-serif; font-size: 12px; font-weight: 200;" fill="rgb(50, 49, 63)" stroke="none" stroke-width="1px">8k</text><text x="216.25" y="0" dx="0em" dy="0.95em" style="text-anchor: middle; visibility: hidden; font-family: &quot;Helvetica Neue&quot;, sans-serif; font-size: 12px; font-weight: 200;" fill="rgb(50, 49, 63)" stroke="none" stroke-width="1px">9k</text><text x="237.875" y="0" dx="0em" dy="0.95em" style="text-anchor: middle; visibility: inherit; font-family: &quot;Helvetica Neue&quot;, sans-serif; font-size: 12px; font-weight: 200;" fill="rgb(50, 49, 63)" stroke="none" stroke-width="1px">10k</text><text x="259.5" y="0" dx="0em" dy="0.95em" style="text-anchor: middle; visibility: hidden; font-family: &quot;Helvetica Neue&quot;, sans-serif; font-size: 12px; font-weight: 200;" fill="rgb(50, 49, 63)" stroke="none" stroke-width="1px">11k</text><text x="281.125" y="0" dx="0em" dy="0.95em" style="text-anchor: middle; visibility: hidden; font-family: &quot;Helvetica Neue&quot;, sans-serif; font-size: 12px; font-weight: 200;" fill="rgb(50, 49, 63)" stroke="none" stroke-width="1px">12k</text></g><line x1="0" y1="0" x2="281.125" y2="0" fill="rgb(0, 0, 0)" stroke="rgb(204, 204, 204)" stroke-width="1px"></line></g></g></g></g></svg>