<svg viewBox="0 0 330 200" xmlns="http://www.w3.org/2000/svg"><g><g><g><g><g><line x1="48.875" y1="177.828125" x2="43.875" y2="177.828125" style="visibility: inherit;" fill="rgb(0, 0, 0)" stroke="rgb(204, 204, 204)" stroke-width="1px"></line><line x1="48.875" y1="161.6619318181818" x2="43.875" y2="161.6619318181818" style="visibility: inherit;" fill="rgb(0, 0, 0)" stroke="rgb(204, 204, 204)" stroke-width="1px"></line><line x1="48.875" y1="145.4957386363636" x2="43.875" y2="145.4957386363636" style="visibility: inherit;" fill="rgb(0, 0, 0)" stroke="rgb(204, 204, 204)" stroke-width="1px"></line><line x1="48.875" y1="129.3295454545455" x2="43.875" y2="129.3295454545455" style="visibility: inherit;" fill="rgb(0, 0, 0)" stroke="rgb(204, 204, 204)" stroke-width="1px"></line><line x1="48.875" y1="113.1633522727273" x2="43.875" y2="113.1633522727273" style="visibility: inherit;" fill="rgb(0, 0, 0)" stroke="rgb(204, 204, 204)" stroke-width="1px"></line><line x1="48.875" y1="96.99715909090911" x2="43.875" y2="96.99715909090911" style="visibility: inherit;" fill="rgb(0, 0, 0)" stroke="rgb(204, 204, 204)" stroke-width="1px"></line><line x1="48.875" y1="80.83096590909089" x2="43.875" y2="80.83096590909089" style="visibility: inherit;" fill="rgb(0, 0, 0)" stroke="rgb(204, 204, 204)" stroke-width="1px"></line><line x1="48.875" y1="64.6647727272727" x2="43.875" y2="64.6647727272727" style="visibility: inherit;" fill="rgb(0, 0, 0)" stroke="rgb(204, 204, 204)" stroke-width="1px"></line><line x1="48.875" y1="48.498579545454504" x2="43.875" y2="48.498579545454504" style="visibility: inherit;" fill="rgb(0, 0, 0)" stroke="rgb(204, 204, 204)" stroke-width="1px"></line><line x1="48.875" y1="32.3323863636364" x2="43.875" y2="32.3323863636364" style="visibility: inherit;" fill="rgb(0, 0, 0)" stroke="rgb(204, 204, 204)" stroke-width="1px"></line><line x1="48.875" y1="16.166193181818215" x2="43.875" y2="16.166193181818215" style="visibility: inherit;" fill="rgb(0, 0, 0)" stroke="rgb(204, 204, 204)" stroke-width="1px"></line><line x1="48.875" y1="0" x2="43.875" y2="0" style="visibility: inherit;" fill="rgb(0, 0, 0)" stroke="rgb(204, 204, 204)" stroke-width="1px"></line></g><g transform="translate(38.875, 0)"><text x="0" y="177.828125" dx="0em" dy="0.3em" style="text-anchor: end; visibility: hidden; font-family: &quot;Helvetica Neue&quot;, sans-serif; font-size: 12px; font-weight: 200;" fill="rgb(50, 49, 63)" stroke="none" stroke-width="1px">0.64</text><text x="0" y="161.6619318181818" dx="0em" dy="0.3em" style="text-anchor: end; visibility: inherit; font-family: &quot;Helvetica Neue&quot;, sans-serif; font-size: 12px; font-weight: 200;" fill="rgb(50, 49, 63)" stroke="none" stroke-width="1px">0.66</text><text x="0" y="145.4957386363636" dx="0em" dy="0.3em" style="text-anchor: end; visibility: hidden; font-family: &quot;Helvetica Neue&quot;, sans-serif; font-size: 12px; font-weight: 200;" fill="rgb(50, 49, 63)" stroke="none" stroke-width="1px">0.68</text><text x="0" y="129.3295454545455" dx="0em" dy="0.3em" style="text-anchor: end; visibility: inherit; font-family: &quot;Helvetica Neue&quot;, sans-serif; font-size: 12px; font-weight: 200;" fill="rgb(50, 49, 63)" stroke="none" stroke-width="1px">0.7</text><text x="0" y="113.1633522727273" dx="0em" dy="0.3em" style="text-anchor: end; visibility: hidden; font-family: &quot;Helvetica Neue&quot;, sans-serif; font-size: 12px; font-weight: 200;" fill="rgb(50, 49, 63)" stroke="none" stroke-width="1px">0.72</text><text x="0" y="96.99715909090911" dx="0em" dy="0.3em" style="text-anchor: end; visibility: inherit; font-family: &quot;Helvetica Neue&quot;, sans-serif; font-size: 12px; font-weight: 200;" fill="rgb(50, 49, 63)" stroke="none" stroke-width="1px">0.74</text><text x="0" y="80.83096590909089" dx="0em" dy="0.3em" style="text-anchor: end; visibility: hidden; font-family: &quot;Helvetica Neue&quot;, sans-serif; font-size: 12px; font-weight: 200;" fill="rgb(50, 49, 63)" stroke="none" stroke-width="1px">0.76</text><text x="0" y="64.6647727272727" dx="0em" dy="0.3em" style="text-anchor: end; visibility: inherit; font-family: &quot;Helvetica Neue&quot;, sans-serif; font-size: 12px; font-weight: 200;" fill="rgb(50, 49, 63)" stroke="none" stroke-width="1px">0.78</text><text x="0" y="48.498579545454504" dx="0em" dy="0.3em" style="text-anchor: end; visibility: hidden; font-family: &quot;Helvetica Neue&quot;, sans-serif; font-size: 12px; font-weight: 200;" fill="rgb(50, 49, 63)" stroke="none" stroke-width="1px">0.8</text><text x="0" y="32.3323863636364" dx="0em" dy="0.3em" style="text-anchor: end; visibility: inherit; font-family: &quot;Helvetica Neue&quot;, sans-serif; font-size: 12px; font-weight: 200;" fill="rgb(50, 49, 63)" stroke="none" stroke-width="1px">0.82</text><text x="0" y="16.166193181818215" dx="0em" dy="0.3em" style="text-anchor: end; visibility: hidden; font-family: &quot;Helvetica Neue&quot;, sans-serif; font-size: 12px; font-weight: 200;" fill="rgb(50, 49, 63)" stroke="none" stroke-width="1px">0.84</text><text x="0" y="0" dx="0em" dy="0.3em" style="text-anchor: end; visibility: hidden; font-family: &quot;Helvetica Neue&quot;, sans-serif; font-size: 12px; font-weight: 200;" fill="rgb(50, 49, 63)" stroke="none" stroke-width="1px">0.86</text></g><line x1="48.875" y1="0" x2="48.875" y2="177.828125" fill="rgb(0, 0, 0)" stroke="rgb(204, 204, 204)" stroke-width="1px"></line></g></g><g transform="translate(48, 0)" clip-path="url(#clip_0)"><clipPath id="clip_0"><rect width="281" height="177"></rect></clipPath><g><g><g><line x1="0" y1="0" x2="0" y2="177.828125" fill="rgb(0, 0, 0)" stroke="rgb(60, 60, 60)" stroke-width="1px" opacity="0.25"></line><line x1="21.625" y1="0" x2="21.625" y2="177.828125" fill="rgb(0, 0, 0)" stroke="rgb(60, 60, 60)" stroke-width="1px" opacity="0.25"></line><line x1="43.25" y1="0" x2="43.25" y2="177.828125" fill="rgb(0, 0, 0)" stroke="rgb(60, 60, 60)" stroke-width="1px" opacity="0.25"></line><line x1="64.875" y1="0" x2="64.875" y2="177.828125" fill="rgb(0, 0, 0)" stroke="rgb(60, 60, 60)" stroke-width="1px" opacity="0.25"></line><line x1="86.5" y1="0" x2="86.5" y2="177.828125" fill="rgb(0, 0, 0)" stroke="rgb(60, 60, 60)" stroke-width="1px" opacity="0.25"></line><line x1="108.125" y1="0" x2="108.125" y2="177.828125" fill="rgb(0, 0, 0)" stroke="rgb(60, 60, 60)" stroke-width="1px" opacity="0.25"></line><line x1="129.75" y1="0" x2="129.75" y2="177.828125" fill="rgb(0, 0, 0)" stroke="rgb(60, 60, 60)" stroke-width="1px" opacity="0.25"></line><line x1="151.375" y1="0" x2="151.375" y2="177.828125" fill="rgb(0, 0, 0)" stroke="rgb(60, 60, 60)" stroke-width="1px" opacity="0.25"></line><line x1="173" y1="0" x2="173" y2="177.828125" fill="rgb(0, 0, 0)" stroke="rgb(60, 60, 60)" stroke-width="1px" opacity="0.25"></line><line x1="194.625" y1="0" x2="194.625" y2="177.828125" fill="rgb(0, 0, 0)" stroke="rgb(60, 60, 60)" stroke-width="1px" opacity="0.25"></line><line x1="216.25" y1="0" x2="216.25" y2="177.828125" fill="rgb(0, 0, 0)" stroke="rgb(60, 60, 60)" stroke-width="1px" opacity="0.25"></line><line x1="237.875" y1="0" x2="237.875" y2="177.828125" fill="rgb(0, 0, 0)" stroke="rgb(60, 60, 60)" stroke-width="1px" opacity="0.25"></line><line x1="259.5" y1="0" x2="259.5" y2="177.828125" fill="rgb(0, 0, 0)" stroke="rgb(60, 60, 60)" stroke-width="1px" opacity="0.25"></line><line x1="281.125" y1="0" x2="281.125" y2="177.828125" fill="rgb(0, 0, 0)" stroke="rgb(60, 60, 60)" stroke-width="1px" opacity="0.25"></line></g><g><line x1="0" y1="177.828125" x2="281.125" y2="177.828125" fill="rgb(0, 0, 0)" stroke="rgb(60, 60, 60)" stroke-width="1px" opacity="0.25"></line><line x1="0" y1="161.6619318181818" x2="281.125" y2="161.6619318181818" fill="rgb(0, 0, 0)" stroke="rgb(60, 60, 60)" stroke-width="1px" opacity="0.25"></line><line x1="0" y1="145.4957386363636" x2="281.125" y2="145.4957386363636" fill="rgb(0, 0, 0)" stroke="rgb(60, 60, 60)" stroke-width="1px" opacity="0.25"></line><line x1="0" y1="129.3295454545455" x2="281.125" y2="129.3295454545455" fill="rgb(0, 0, 0)" stroke="rgb(60, 60, 60)" stroke-width="1px" opacity="0.25"></line><line x1="0" y1="113.1633522727273" x2="281.125" y2="113.1633522727273" fill="rgb(0, 0, 0)" stroke="rgb(60, 60, 60)" stroke-width="1px" opacity="0.25"></line><line x1="0" y1="96.99715909090911" x2="281.125" y2="96.99715909090911" fill="rgb(0, 0, 0)" stroke="rgb(60, 60, 60)" stroke-width="1px" opacity="0.25"></line><line x1="0" y1="80.83096590909089" x2="281.125" y2="80.83096590909089" fill="rgb(0, 0, 0)" stroke="rgb(60, 60, 60)" stroke-width="1px" opacity="0.25"></line><line x1="0" y1="64.6647727272727" x2="281.125" y2="64.6647727272727" fill="rgb(0, 0, 0)" stroke="rgb(60, 60, 60)" stroke-width="1px" opacity="0.25"></line><line x1="0" y1="48.498579545454504" x2="281.125" y2="48.498579545454504" fill="rgb(0, 0, 0)" stroke="rgb(60, 60, 60)" stroke-width="1px" opacity="0.25"></line><line x1="0" y1="32.3323863636364" x2="281.125" y2="32.3323863636364" fill="rgb(0, 0, 0)" stroke="rgb(60, 60, 60)" stroke-width="1px" opacity="0.25"></line><line x1="0" y1="16.166193181818215" x2="281.125" y2="16.166193181818215" fill="rgb(0, 0, 0)" stroke="rgb(60, 60, 60)" stroke-width="1px" opacity="0.25"></line><line x1="0" y1="0" x2="281.125" y2="0" fill="rgb(0, 0, 0)" stroke="rgb(60, 60, 60)" stroke-width="1px" opacity="0.25"></line></g></g></g><g><g><line x1="0" y1="695.1463068181819" x2="281.125" y2="695.1463068181819" fill="rgb(0, 0, 0)" stroke="rgb(153, 153, 153)" stroke-width="1.5px"></line></g></g><g><g><line x1="21.625" y1="0" x2="21.625" y2="177.828125" fill="rgb(0, 0, 0)" stroke="rgb(153, 153, 153)" stroke-width="1.5px"></line></g></g><g><g><g><g><g><path stroke="rgb(255, 112, 67)" stroke-width="2px" d="M22.641375,207.30700593074906L23.333375,169.02595779081338L23.419874999999998,90.80032327036722L24.09025,124.72601326889995L24.155124999999998,134.58481156328457L24.371375,132.56203742318485L24.566,129.59715279411722L24.95525,138.35660109501993L24.976875000000003,70.57390921424569L25.063375,105.93496621209054L25.366125,33.52898330755119L25.582375,68.70340995155894L26.166249999999998,104.82984572382668L26.59875,75.8962436332883L26.750125,136.17125871373878L27.420499999999997,100.74276365232673L27.701625,143.89769490489473L27.874624999999998,118.89507585873321L27.961125,91.16464296968445L27.961125,69.25964614007032L28.480125,81.2945585815559L28.609875,118.25200533845182L28.76125,137.12161937249658L28.869375,128.37977323268032L29.345125,118.23673119839881L29.431625,101.78989432779854L29.88575,117.32541435926561L29.929,133.21092299161867L29.950625,73.97281553230978L30.102,89.66885190837344L30.123625,112.04109643506871L30.210124999999998,153.15727567677695L30.296625,134.09397017621478L30.3615,138.43455500246066L30.66425,170.22416999913463L31.832,169.91731542240063L32.113125000000004,171.64980224309167L32.13475,135.09582942789353L32.199625,145.935733465578L32.459125,109.82954265624532L32.48075,128.21524701462812L32.588875,137.76965535155085L33.107875,92.95752741252181L33.151125,96.06380431369301L33.43225,123.02619450632238L33.497125,139.03176445684232L33.562,158.705887821621L34.124249999999996,123.56253743732427L34.1675,92.74529220386505L34.189125,59.474299271689944L34.38375,86.14707739911121L34.5135,128.56072389566495L35.07575,131.39270160147868L35.248749999999994,101.84537195389109L35.85425,52.01186939110184L35.87587499999999,28.284616800100167L36.027249999999995,40.18377868087251L36.0705,64.20583691082953L36.5895,95.65093006679072L36.676,129.20275552238957L36.913875000000004,97.08991980028422L37.043625000000006,101.21262670820136L37.15175,111.95858688688651L37.476125,99.10609479547908L37.58425,111.59066242585949L37.735625,97.2883986501336L38.081625,99.63132257889795L38.406,134.5793230384274L38.579,122.98657059823394L38.751999999999995,94.03413683905067L38.79525,109.36718605821648L38.96825,113.57790564956639L39.3575,86.0180295112925L39.811625,79.55460039558831L39.898125,77.15297905483628L40.09275,109.68695767815366L40.200874999999996,148.93431762344454L40.35225,140.2888445365727L40.373875,88.2580727457529L40.395500000000006,100.61688834253914L40.87125,109.71096567169563L41.368625,99.54505969904393L41.563250000000004,134.1799633884554L41.649750000000004,139.6968508942581L41.801125,153.26814896854614L41.82275,123.27188381412964L41.90925,105.9245799010194L42.341750000000005,92.32666999820775L42.536375,106.50163180500974L42.644499999999994,134.76327920221618L42.666125,129.52440967574532L43.25,138.70202184200994L43.37975,132.34017179407203L43.63925,137.94968979479114L44.07175,127.4936520052951L44.15825,126.21401498756902L44.2015,140.30435041729055L44.288000000000004,117.61114926362728L44.85025,143.46942856987582L44.93675,113.96338526573123L45.261125,121.05653220080775L45.304375,112.57269525232519L45.390875,114.75819447229054L45.520625,148.51745988597227L45.736875,105.81644670007839L45.80175,120.62583326092923L45.80175,124.81102461419718L46.018,113.56026770998095L46.082875,125.31645055616147L46.4505,98.49605714003974L46.558625,94.96807824511593L46.68837499999999,93.94027143761888L46.9695,67.8523853805927L47.077625000000005,68.37560221415997L47.44525,65.2614608445545L47.466875,46.44616339343014L47.4885,73.4017143982971L47.96425,106.69535988174546L48.13725,97.14887588207255L48.158874999999995,113.80767087026219L48.223749999999995,119.99397313959034L48.483250000000005,105.99757861103954L48.504875,124.80893420513098L48.613,100.96673539751875L48.634625,112.84639975589256L48.677875,76.79507103909373L48.82925,100.61895360260799L48.894125,85.48488853793555L49.00225,50.829335037623395L49.153625,50.33990971886567L49.2185,18.655952818801666L50.64575,37.942958176540685L50.840375,49.70465907370394L51.25125,96.6075132227452L51.402625,70.25859184618228L51.77025,99.44251806992553L52.6785,90.80654899893342L52.938,127.22018102376273L53.694875,102.92684047710065L53.781375000000004,116.3569285589607L54.170625,56.62663240920227L54.473375000000004,61.8964434934464L54.495,78.49017564099414L55.122125,74.85451876097389L55.792500000000004,83.48304912879152L56.160125,101.71116740745572L56.18175,115.28088637531611L56.549375,100.38943150930726L56.6575,152.76635743384978L56.679125,158.88219036656866L56.70075,143.69691161051702L56.722375,160.07783674819274L56.722375,162.54858976655552L57.3495,142.66634862339595L57.782,126.37341172126324L58.128,124.06425912063307L58.409124999999996,142.5566562627884L58.474,140.2584646418905L58.711875,142.76551445107498L58.9065,78.84205120291988L59.0795,94.7807070181334L59.2525,97.87723668540718L60.550000000000004,90.69725398136929L60.744625,124.45790918837957L60.76625,108.31342209672692L60.85275,102.30155492960239L61.1555,108.90258401742152L61.306875000000005,134.61980176403654L61.912375,150.2690192906856L61.955625,107.53851595358032L62.06375,80.16667535315626L62.626000000000005,81.8800197396183L62.863875,109.60445911403976L62.907125,122.68526550938122L62.928749999999994,133.23129212200843L63.036875,93.85965236912647L63.404500000000006,77.66756777576171L63.53425,95.33811431038224L64.0965,91.72441589418392L64.39925,111.28785968276144L64.702,89.85920632994984L65.112875,73.56276531817416L65.221,108.41065100015349L65.26425,126.05581335167595L65.86975,71.33672509239236L65.934625,34.59595017100318L66.04275,45.39943324171111L66.84287499999999,60.6321803303299L66.972625,74.8726752838715L66.99425,70.35296386529625L67.03750000000001,63.500999046751446L67.059125,78.87318058026241L67.318625,78.12636369376635L67.3835,58.04505714422022L67.405125,48.035459452719095L67.707875,68.14206907673895L67.751125,44.173993865003126L68.16199999999999,80.38656320546703L68.29175000000001,60.29283542693807L68.313375,33.421013549578504L69.1135,28.63178201801324L69.2,51.259643675131755L69.546,93.85344142716986L70.19475,95.71786530682745L70.36775,54.94182544042431L70.605625,75.62288253841747L71.124625,122.89475426997245L71.14625000000001,97.97817468273671L71.66525,65.5364711536105L72.05449999999999,47.912157024359146L72.09775,42.96491546953641L72.18424999999999,46.00828960193783L72.57350000000001,15.388487347724435L72.638375,29.936533459825256L72.984375,34.934590572692144L73.070875,89.59136417184901L73.39525,133.86355715403286L73.525,106.88480669978134L73.546625,90.07097876509572L73.95750000000001,114.66522891756944L74.08725000000001,158.43309755721285L74.54137499999999,167.1412803250738L75.276625,172.51182549751658L75.36312500000001,103.13696024614323L75.406375,79.63783264500186L76.22812499999999,82.11461431120748L76.24974999999999,76.72875692773084L76.24974999999999,64.66038336658234L76.833625,93.9753373150616L77.136375,68.13469004302112L77.85000000000001,75.61837674344547L78.260875,68.03941911672442L79.23400000000001,92.10099126811117L79.40700000000001,96.32356044274464L79.558375,95.90604122096343L80.22875,128.3673816437095L80.46662500000001,106.24852918303974L81.24512499999999,117.93610335738097L81.26675,122.97055260856425L81.61275,46.56122477743526L81.87225000000001,44.3222766745923L82.02362500000001,62.728004385624246L82.499375,37.33276918086321L82.82375,32.52187418901491L82.867,12.859405877562637L83.018375,8.558097071937283L83.4725,-6.348960327903967L83.494125,-1.025347087575966L84.078,54.96548072754075L84.424,67.73454248666548L84.597,88.67197557727457L84.64025,81.92552156676734L85.007875,101.35410521367939L85.0295,125.90663725718167L85.094375,147.31983359140563L85.483625,99.24805260357878L85.72149999999999,92.48130021582072L85.981,58.29260117600744L86.02425,43.54028089084099L86.08912500000001,60.2865124147679L86.391875,-19.891544462783827L86.608125,4.9913956114118605L86.651375,24.53406861362464L86.82437499999999,50.68348518667639L86.867625,69.50147534262763L87.34337500000001,37.39791683046266L87.7975,2.963363492527151L87.905625,31.051175302574563L88.44625,21.293727888947387L88.6625,31.077819229913928L88.79225,72.56304624997948L88.857125,91.33722116706433L89.0085,90.0403018883598L89.61399999999999,96.17017241870298L89.8735,132.71650920394032L89.91675,137.7195260891387L90.17625,136.0962090656013L90.306,133.2848833939615L90.41412500000001,135.32791423677327L90.5655,140.27531074172705L90.825,149.03575215234048L91.863,109.68968170857187L91.90625,90.36692642765054L92.12249999999999,67.77930494469128L92.706375,66.06855458903794L92.8145,71.00061454218806L93.009125,78.73521909382609L93.593,60.145990315653194L93.701125,34.05000286911567L93.83087499999999,29.498712895545623L93.8525,41.8768764783342L94.02550000000001,48.65609455944954L94.04712500000001,-18.634499165003717L94.631,-6.123907297083576L95.496,34.804453374769565L95.647375,59.72855529162503L95.733875,109.66352162507742L95.88525,124.2427935746438L96.59887499999999,99.6065810421293L96.94487500000001,87.51570905144118L97.226,91.01512634312357L97.463875,72.83256976285182L98.458625,80.58958857371846L98.545125,125.23814045170977L98.783,155.69037953111547L98.977625,120.51460792829947L99.648,109.52365363067602L99.972375,118.10084404820117L100.55625,111.95259150450232L100.66437499999999,110.28262957547626L100.85900000000001,101.615622442221L100.967125,73.10600837286539L100.98875000000001,52.72973309613268L101.183375,65.51207325755306L101.442875,70.27705390961941L101.6375,80.69313202247397L102.07,72.71349368963679L102.09162500000001,72.83031464637112L102.178125,64.864090521148L102.28625,87.01312724685795L102.307875,69.93393166162608L102.480875,64.79539362776191L102.826875,26.044636582077686L103.043125,63.53588860811989L103.8865,64.65941379579859L104.27575,63.76613080866899L104.44875,73.40441165297975L104.62175,102.15735918702174L104.729875,80.27085103901204L104.79475,118.14402135159848L105.075875,151.52261526444235L105.184,161.65765725869784L105.378625,133.53054461860515L105.53,108.21980899583077L105.74625,104.01773867776097L105.83275,98.80517843960153L105.94087499999999,110.26882894951252L106.30850000000001,85.21156241158177L106.373375,96.26048987724825L107.022125,72.74385430585411L107.04374999999999,89.48630420308591L107.38975,103.32267210042156L108.016875,106.85669799946244L108.406125,94.31333075366365L108.51425,99.14331860768328L108.644,88.42287815278382L108.838625,90.56561045521859L110.07125,86.41808359625281L110.11449999999999,92.28332604187504L110.265875,123.50725238994875L110.438875,81.76076237761826L110.50375000000001,75.46660586592407L110.957875,81.78515630289394L111.130875,58.289853664863756L111.260625,63.697905777268275L111.649875,76.99698340294577L111.71475,66.41614084399617L111.73637500000001,72.83750120687243L111.80125,82.06354897646224L112.03912500000001,69.87772361288519L112.104,39.40601936381003L112.19049999999999,65.01972159420113L113.163625,50.55521080530292L113.206875,36.08854786117112L113.509625,44.18313239875252L113.552875,40.24324382786915L113.61775,20.460131769366996L114.24487500000001,45.64676471954681L114.52600000000001,46.19446099608709L114.6125,56.12945304236912L114.98012499999999,37.497838725769014L114.98012499999999,24.17060661871912L115.08825,46.60449629326112L115.499125,82.17452472112063L115.585625,126.36873276140278L115.62887500000001,110.36670302540925L116.493875,97.0681894056361L116.775,75.35916183709271L116.969625,77.75856372470788L117.01287500000001,97.38971257673414L117.229125,93.19659752175691L117.358875,100.0634172610425L117.618375,94.58987335452608L117.68325,71.24078884767177L117.877875,34.731682612686484L117.8995,30.77725551594827L117.92112499999999,44.53585687592076L118.159,39.57470581448021L118.22387499999999,14.085736746097297L118.483375,-8.048447437608672L118.915875,-39.06463528557785L119.02399999999999,20.494458672959155L119.24025,24.908335879276706L119.521375,15.800829566169142L119.60787499999999,66.41104695312721L119.84575000000001,69.39504169943004L120.602625,70.19902149445232L121.38112500000001,105.3999363694926L121.446,133.62833465436773L121.74875,129.77626566896194L121.96499999999999,79.75656893491906L122.24612499999999,101.03178893458676L122.35425000000001,100.09500317837708L122.70025,49.90664343426171L122.91650000000001,58.20270530258256L123.39225,80.56799299533854L123.413875,97.91597116849508L123.63012499999999,79.65360260713028L123.71662500000001,58.56714201679942L123.99775,47.61743008938558L124.75462499999999,117.32455390627734L124.841125,58.39023357476215L124.92762499999999,67.61998972827713L125.057375,91.0016914029716L125.29525,93.89509780369178L125.42500000000001,94.12300372680846L125.706125,111.00287832694656L125.965625,131.5153454668963L126.0305,89.04236623172916L126.28999999999999,64.81273613830827L126.484625,96.91058249978295L127.2415,101.17960543553335L127.71724999999999,66.54096483321254L128.02,74.2865958696435L128.041625,75.21680968956044L128.47412500000002,39.839409188392295L128.733625,36.090386591070825L129.44725,83.1464083874147L130.290625,66.59713051683863L130.333875,39.27297544527528L130.377125,48.60653631350303L130.5285,69.71857964183523L130.65825,35.35526751133091L130.89612499999998,74.83820565216931L130.961,58.65070293974071L131.13400000000001,24.973846059600334L131.307,43.226568927936L131.56650000000002,102.1177437957739L131.7395,78.7926538474059L132.518,80.41384315005031L132.73425,100.42709423865621L132.799125,78.36872678930007L132.864,89.04489121682472L134.03175000000002,115.46815916195101L134.05337500000002,140.47009983570214L134.29125,101.8370219142704L134.3345,100.6109046930544L134.81025,103.31095665687427L134.918375,67.18550853387067L135.0265,71.84997428344653L135.06975,97.35757961232916L135.394125,92.04511100579606L135.480625,102.99641558985677L135.740125,71.12776784914105L135.740125,45.59318209642237L135.869875,74.55757460404246L136.215875,62.65173584480007L136.302375,94.61365117280216L136.49699999999999,108.09355533902428L136.54025000000001,123.84947637001518L136.648375,108.7793347002855L136.734875,83.39695299141623L136.821375,46.67095542547551L136.99437500000002,50.692184361989916L137.31875,53.64946016763736L137.426875,67.58328276292623L137.83775,104.42060891786895L137.92425,88.43213962194403L137.945875,68.065152176509L138.18375,88.76201570487491L138.248625,125.42072824687912L138.551375,75.58378828279677L138.6595,83.40060515008872L138.724375,88.19705525315759L138.83249999999998,67.57355107775949L138.940625,31.56660345252419L139.092,38.71138980814908L139.50287500000002,85.89982004036682L139.5245,80.79429796054795L139.892125,69.61424760973621L139.935375,72.4732197925545L140.194875,98.8224924224673L140.25975,89.30396495948403L140.281375,85.94587279170312L140.71387499999997,108.27964852826439L140.77875,94.0957540591836L140.800375,82.80624008760165L140.9085,51.98164694983218L140.973375,78.519503460696L141.12475,95.46336185045283L141.21125,90.26473532931621L141.38425,69.6717069600022L141.665375,89.35936412293236L141.85999999999999,121.16603562397778L141.96812500000001,167.9053877409443L142.16275,168.9112854326454L142.443875,133.11124580724163L142.703375,118.19177710873399L142.725,130.85834533815364L142.725,133.73689745897192L143.37375,58.22785293866316L143.395375,48.86051814293339L143.50349999999997,60.48315372054698L143.914375,65.75254712190633L144.455,68.88554555911932L145.08212500000002,42.64626279710646L145.471375,74.1310350112634L145.666,96.09147943116153L145.88225,117.4669849229137L146.185,128.1048648014669L146.206625,108.22425074363322L146.29312499999997,123.64377235442683L146.31474999999998,135.54049370371374L146.48775,139.3117772875936L146.57424999999998,125.34855061444819L146.682375,122.32688715087016L147.00675,133.118443151519L147.43925,130.9380368592934L147.56900000000002,150.94154694183888L147.69875,164.2211483515373L147.806875,141.85328456281417L147.95825,123.52800087635181L147.979875,108.26505686352152L148.369125,61.08447350079601L148.758375,62.19237697539687L149.061125,69.08789844856891L149.2125,75.19627245041922L149.536875,82.7498440281939L149.796375,97.4416875503974L149.99099999999999,95.67862947806816L150.35862500000002,103.99743212327421L150.63975,78.83165975888517L150.791125,67.01214626135031L150.81275,50.341024856522765L151.029,18.19055742930587L151.093875,23.13703634875648L151.24525,64.4602336399468L151.353375,101.06679734026758L151.396625,51.24433813076885L151.483125,46.642433956345826L151.67775,72.40029760305939L151.8075,44.74089157968942L152.86712500000002,44.466600685928114L153.0185,68.79866310592415L153.14825,96.46986812109039L153.19150000000002,113.94975745964979L153.3645,125.36773867372938L153.7105,150.563764707057L153.818625,165.2453988288691L154.510625,143.52781161459112L154.53225,105.78416367320045L154.70524999999998,79.49955388052958L154.87825,80.94582706612924L155.65675000000002,104.78700035046356L155.74325000000002,98.58176482084885L156.08925,81.52508245828395L156.28387500000002,76.22096134168132L156.327125,74.95510750825537L156.565,117.90035554019909L157.257,101.71449429134418L157.3435,97.51168847029254L157.581375,108.38600529114939L157.81924999999998,112.10781037858185L158.12199999999999,116.02573268579437L158.619375,93.1430956914409L158.922125,48.130188460042376L159.570875,51.138391387939095L159.743875,57.580138162985506L160.06825,77.92423848412882L160.392625,68.62033166770338L160.652125,79.92821877774932L160.717,97.10055760868617L160.84675,115.25525093612916L161.063,129.81524119365824L161.517125,122.94830875490183L161.517125,119.57658130612413L161.733375,92.70466150197164L162.3605,44.617222455959734L162.555125,65.85341164285664L162.83625,71.71664642642142L162.857875,73.42101372682359L162.944375,97.78272216668796L163.07412499999998,86.12545897454665L163.203875,73.6681794621983L163.35524999999998,47.43219217303303L163.39849999999998,30.83363011110754L163.593125,19.617078525190067L163.78775000000002,37.70506144083413L163.982375,54.73468935892555L164.13375,119.3004708342722L164.241875,123.16226781529556L164.285125,92.20372254352469L164.414875,57.37058842267916L164.414875,34.468503920096964L164.458125,45.76501754462436L164.760875,64.84919391081378L165.042,78.84183629097565L165.409625,57.89792702572581L165.56099999999998,80.92153185605862L165.95025,61.18034396124071L166.53412500000002,86.91146259528615L166.57737500000002,104.1942335662486L166.793625,136.412036561937L167.312625,70.5795344053983L167.637,55.46092481386701L168.09112499999998,24.464378056847266L168.63174999999998,59.7789935622516L168.80475,109.1379529837475L168.89124999999999,98.18868346683418L168.956125,107.31709590108271L169.49675,130.5976173337545L169.518375,123.43739147507986L169.561625,128.28543936055473L169.69137500000002,111.83424593305442L169.994125,110.43964385160228L170.25362500000003,103.6631429785233L170.340125,144.44573394320858L170.57799999999997,97.53837413495887L170.945625,77.84596344840365L171.31325,43.598119403695705L171.57275,44.61863546471869L171.594375,58.780964074303796L171.74575,91.30114799618562L172.308,104.1665592025238L172.329625,117.80199565039817L172.52425,88.31544278210629L172.5675,109.10323847632974L172.654,52.127857810903706L172.675625,62.58034736680118L172.74050000000003,72.23924948556223L172.95675,22.993424978236135L172.978375,15.497964257688778L173.865,68.99021630593903L173.92987499999998,121.648022156112L174.73,115.65082104911475L175.37875,73.54548437839786L175.443625,76.06869777137929L175.703125,84.06567049245609L176.092375,98.45930140596973L176.114,105.38078898466759L176.178875,120.45779028164986L176.265375,75.50472528204546L176.45999999999998,87.08262743495683L176.58975,102.5340432189381L176.654625,127.88242107528029L176.870875,101.13223226456388L177.28175,85.41181758004099L177.822375,103.00560375575824L178.081875,117.03041729941727L178.34137500000003,98.77751028667112L178.730625,102.33175297037164L178.990125,120.25256018991331L179.01175,103.74100522532012L179.8335,109.68928340831852L179.898375,133.20651891860308L180.22275000000002,125.77725819233456L180.30925,110.10139269954362L180.3525,74.16087888836337L180.417375,68.9263642844851L181.066125,90.00663145423066L181.412125,78.66449692435772L181.43374999999997,75.69345600291537L181.52025,98.80124509164085L181.5635,119.87234215938898L181.73649999999998,108.87635452722544L181.801375,95.33354565456531L181.844625,89.63014678589605L182.147375,99.63577102361926L182.4285,100.37123333046486L182.64475,93.04235413869738L182.99075,101.60625954999479L182.99075,101.1017615043974L183.01237500000002,100.51045113494405L183.271875,79.5438364425L184.093625,94.89246891704828L184.78562499999998,118.31842633130552L185.23975000000002,128.87508689366496L185.28300000000002,104.34996474441068L185.75875,127.05805317859381L185.953375,24.755323732335853L186.36425,61.4387849476573L186.688625,93.92010700329067L186.75349999999997,129.7703378933333L186.861625,126.4136126859041L187.31574999999998,107.54214663162054L187.48875,126.49181567357155L187.553625,132.18158161057013L187.64012499999998,162.7064061182021L188.1375,151.5936578125578L188.202375,63.413001581520106L188.37537500000002,88.27377838861625L188.44025,120.60601231493114L188.548375,108.70770883413243L188.743,131.06809866611138L188.91600000000003,133.7483146709604L188.93762500000003,120.24550246011896L189.283625,97.32626421976002L189.629625,101.19700362648854L190.12699999999998,122.26312498892119L190.25675,96.96390868694537L190.38649999999998,88.02695251584353L191.0785,97.97558643242633L191.40287500000002,97.81412264855345L191.81375,94.70940950616814L192.07325,96.3987622204969L192.15975,100.40456017867571L192.224625,85.13362691371239L192.397625,73.57809260955159L192.722,59.81801828372353L192.76525,69.06829879766522L192.95987499999998,88.82002046836725L193.17612499999998,73.58938136349556L194.387125,77.4770412313152L194.473625,84.78438974714707L194.5385,110.18644876528091L194.798,96.52663774631583L194.81962499999997,88.68858627874133L195.2305,62.963885008277245L195.511625,60.51103341830313L195.641375,114.31122715806575L195.87925,85.30766182806913L196.506375,95.83545366076456L196.65775,152.45007099475436L196.765875,140.01351264589246L196.809125,107.8902648238054L197.30650000000003,95.14621008526105L198.085,91.96920910775607L198.322875,88.85552689855713L198.366125,66.35313404158006L198.409375,68.58224148261694L198.51749999999998,88.37868425915985L198.73375,113.5899367970493L199.014875,100.74692288354001L199.3825,63.7562741111433L199.469,83.74636615184419L200.0745,93.1788397673407L200.658375,75.26454628302311L200.9395,64.02587403010516L201.00437499999998,55.40544300047539L201.220625,60.0101701736167L201.76125000000002,65.40647116949268L201.8045,56.53513208486876L202.1505,112.68997890260577L202.691125,120.38670725508139L202.90737499999997,102.1436305303301L203.253375,138.54749892908436L203.3615,144.56764033590622L203.3615,143.3856053295209L203.642625,125.6093939735386L203.729125,161.54471831982963L203.8805,145.828483073615L204.334625,132.2902286607153L204.61575,153.06602912194023L205.415875,155.91372632872591L206.151125,145.1967081459039L206.4755,127.33512132492068L206.843125,137.50020486333995L206.86475,136.75448229328308L207.102625,154.80537967861818L207.5135,110.34167762699039L207.55675,124.8329601302068L207.62162500000002,134.06876064394024L208.010875,169.27714092655356L208.097375,137.8636138181021L208.24875,112.20988475933092L208.3785,109.34463319660509L208.573125,102.1374304902387L208.59475,76.39283660619179L208.832625,54.825361018021425L208.85425,61.5026169847242L208.85425,61.86900780858616L208.8975,63.869403614920486L209.09212499999998,55.22834596512227L209.481375,41.45917535586932L209.654375,65.57639599870636L209.80575000000002,83.53165108607087L209.80575000000002,83.8209744546113L210.043625,100.8542927264423L210.15175,80.55311205130688L210.23825,93.71776204437587L210.346375,96.94542356671867L210.865375,112.60710270418996L210.951875,95.1936473630271L210.99512499999997,91.0598381354398L211.29787499999998,101.24999629189402L211.44925,97.9156669721159L211.514125,89.12689738820455L211.6655,83.56887841657075L211.773625,61.11459303642566L211.83849999999998,81.50074619214526L211.86012499999998,96.31922695258459L211.90337499999998,140.79882042802797L212.16287499999999,135.08835064161732L212.27100000000002,91.27098366593931L212.31425000000002,81.03733634893558L212.48725,102.5374075091097L212.63862500000002,115.99455373478665L213.027875,106.9678945517242L213.114375,103.31773684841771L213.244125,105.15706482862673L213.763125,87.92708363231618L213.78474999999997,105.93014707419691L213.828,106.82464621868336L214.13075,113.50573049287773L214.541625,119.65216082188681L215.731,118.63659133742351L215.839125,99.84391308740108L216.012125,95.3697369930113L216.03375,93.29997623363201L216.141875,82.90643972335327L216.444625,83.35997336938094L216.81225,102.54173832938086L216.81225,109.87460216682344L216.920375,97.45211803164703L216.942,87.01441966503192L217.3745,90.93385628128739L217.63400000000001,104.31041748993059L217.807,67.90619143546824L217.828625,61.553265364312736L217.91512500000002,66.62824376393611L218.088125,91.0546322385895L218.304375,102.24728099107581L218.563875,96.0415295365714L218.80175,117.38581033422669L219.1045,119.33421749207942L219.23425,82.73294138788864L219.68837499999998,65.86184489540165L219.70999999999998,38.610045724731066L220.164125,67.25081917331083L220.25062499999999,99.39756390264907L221.115625,92.00303428101218L221.13725,79.34493459517545L222.067125,102.15135777317812L222.15362499999998,77.47955485158705L222.629375,67.08205814007142L222.651,53.62931222740917L223.19162500000002,59.19762422883525L223.29975,97.22551372548895L223.840375,89.05855728830018L223.9485,72.93498666549073L224.035,78.2874921094872L224.33775,31.311151815389906L224.748625,44.03665042220396L224.921625,12.4470277860963L225.37575,19.09107061549878L225.89475,83.94049804241733L226.32725,82.14523132295446L226.608375,60.01771747058709L226.803,98.03975234687157L226.86787500000003,87.11020613034098L226.911125,67.19421188764402L227.10575,68.94934675222574L227.17062499999997,91.12975227819803L227.213875,101.75338406466962L227.343625,109.26715089821748L227.5815,59.16361655776237L228.07887499999998,50.06730524725799L228.31674999999998,82.2160302255224L228.706,64.07564750139208L228.879,88.6087139558073L229.246625,100.65747096538023L229.37637500000002,136.6420397312231L229.506125,133.58719380685505L229.917,94.63259023048761L229.981875,106.96218974051214L230.025125,115.73374501208326L230.30625,119.2386260965269L230.58737499999998,154.59085319646005L231.452375,126.79056897686867L231.495625,115.24082705768471L231.53887500000002,111.62030175182919L232.0795,132.11443783214997L232.29575,140.42499288846662L232.46874999999997,142.09439379300625L232.490375,113.2287674941585L232.512,129.01656208432604L232.72825,107.60244632835591L232.793125,105.5527045686567L233.05262499999998,115.10092804718977L233.31212499999998,73.29047657374826L233.33374999999998,75.38244780481796L233.485125,63.53062720414741L233.917625,33.26528073846433L233.9825,34.63036617067206L234.133875,70.43073202070553L234.242,70.27329557693363L234.35012500000002,93.12873172671685L234.39337500000002,85.75192081997176L234.8475,158.22252149196547L234.912375,135.06286571936602L234.95562500000003,111.14466258744471L235.0205,57.460531764998066L235.0205,23.68356093718333L235.453,29.310512911862133L235.66925,53.21768746009997L235.950375,101.67157504263075L236.209875,66.35242933608077L236.96675,88.96907512821763L237.074875,84.5030767286409L237.204625,56.71381100814709L237.377625,48.15577456771675L237.550625,60.32822141477344L237.637125,3.4381691836322545L237.74525000000003,37.458840036611974L237.810125,52.50670248995766L238.242625,90.23592608017594L238.394,102.65997261189415L238.43725,85.79386749238473L238.502125,108.73279107637173L238.545375,122.02730564369206L239.36712500000002,110.97746806159773L239.36712500000002,104.72182006278732L239.38875000000002,114.0144785192365L239.842875,83.87907825865149L239.886125,91.27212353147472L240.2105,62.32386664724973L240.448375,29.06693962809328L240.51325,22.323121096771246L240.53487500000003,1.8376313990161748L240.59975,10.06514201843666L241.03225,34.6645238063542L241.20525,60.06535448156916L241.356625,55.99553219473054L241.46474999999998,33.79870295386567L241.486375,37.45420556832258L241.68099999999998,71.07735417729504L241.89725,73.14067636018706L242.005375,69.02274401848577L242.15675000000002,69.2800343380818L242.17837500000002,123.71033745522354L242.610875,144.52037570526142L242.6325,139.06657808458232L242.870375,125.99717489503443L243.10825,120.59535659590846L243.562375,108.67745715691794L243.692125,61.20820925050474L243.71375,38.89873858916408L243.821875,59.33350717054395L243.90837499999998,48.21082066922972L243.92999999999998,30.677640620605757L243.95162499999998,31.73994734753819L243.994875,24.916676768696334L244.124625,24.42507827806992L244.49224999999998,0.3483816508887969L244.90312500000002,-51.1325330425727L245.314,-45.68475150738374L245.508625,2.663908672649029L245.55187500000002,9.830032799420195L245.941125,13.911128742467326L246.287125,33.61205386168206L246.287125,43.4600446301487L246.330375,112.44986754421848L246.330375,147.8881225951201L246.69799999999998,126.3458944986194L246.76287499999998,137.0826185124393L246.849375,111.24350204359422L246.91425,82.73977423774942L247.108875,60.24773242290465L247.47650000000002,77.2866487617505L247.73600000000002,115.64887232674707L247.73600000000002,133.01120479122022L248.12525,124.9368835027204L248.536125,116.01006393235953L248.968625,96.30308316810414L249.0335,121.77397735284043L249.055125,117.91898237353239L249.07675,113.07818689890463L249.271375,70.60631213854677L249.401125,36.94133142936238L249.50924999999998,55.97285356921935L249.55249999999998,80.57186738656748L250.24450000000002,65.32937740958525L250.89325,66.70024357489278L250.9365,83.25253556513886L251.196,126.0809821015245L251.369,161.28218844428451L251.58525,162.72932182182925L252.10425,171.40959707660065L252.125875,105.99014707906053L252.19075,82.26715018344626L252.904375,20.391884798919477L253.099,32.13552419021818L253.92075000000003,50.71516542288448L254.331625,69.03142798864342L254.35325,61.247771724670216L254.720875,73.92404512021766L255.023625,76.95789090164256L255.175,83.69265011659822L255.283125,67.68076567958812L255.39124999999999,73.05701808399573" style="fill: none;" fill="none"></path></g></g></g></g><g opacity="0.20000000298023224"><g><g><g><path stroke="rgb(255, 112, 67)" stroke-width="2px" d="M22.079125,242.4739614491436L22.10075,123.96381055665287L22.381875,200.22944909842178L22.641375,223.23039759356868L23.333375,116.06948703595182L23.419874999999998,-21.06358570402321L24.09025,174.18999497338453L24.155124999999998,149.1246240745214L24.371375,129.55845356732607L24.566,125.1767171358859L24.95525,151.44810501553798L24.976875000000003,-30.878806357356666L25.063375,158.90727571702817L25.366125,-74.99488053436986L25.582375,121.44024218669671L26.166249999999998,159.00421188534662L26.59875,32.50318673591721L26.750125,226.57459904253486L27.420499999999997,47.60325936498967L27.701625,208.6277250647545L27.874624999999998,81.39197001132099L27.961125,49.569541125134975L27.961125,36.402410381219596L28.480125,99.3468417047777L28.609875,173.6880178671669L28.76125,165.4259921413931L28.869375,115.26701744374904L29.345125,103.02217749015175L29.431625,77.1196481118148L29.88575,140.62868925471875L29.929,157.03918277946386L29.950625,-14.884338584813236L30.102,113.21290534819393L30.123625,145.5994622636248L30.210124999999998,214.83154347911477L30.296625,105.49901222031225L30.3615,144.94543220153588L30.66425,217.90859231708404L31.832,169.45703355832535L32.113125000000004,174.24853247065437L32.13475,80.26487024907361L32.199625,162.1955895142799L32.459125,55.67025645788419L32.48075,155.79380354742435L32.588875,152.1012678554451L33.107875,25.739335508170456L33.151125,100.72321966527538L33.43225,163.4697797943584L33.497125,163.04011938229883L33.562,188.2170728685504L34.124249999999996,70.84751186113465L34.1675,46.51942435381088L34.189125,9.567809873514562L34.38375,126.15624459020117L34.5135,192.1811936404556L35.07575,135.6406681601974L35.248749999999994,57.52437748251991L35.85425,-22.738384453071802L35.87587499999999,-7.306262086399585L36.027249999999995,58.03252150203015L36.0705,100.23892425576395L36.5895,142.8185698007318L36.676,179.53049370578745L36.913875000000004,48.92066621712664L37.043625000000006,107.39668707007712L37.15175,128.07752715491435L37.476125,79.82735665836795L37.58425,130.31751387143L37.735625,75.83500298654491L38.081625,103.14570847204463L38.406,187.00132372772154L38.579,105.59744193794376L38.751999999999995,50.605486200275735L38.79525,132.36675988696516L38.96825,119.89398503659123L39.3575,44.678215303881615L39.811625,69.85945672203194L39.898125,73.55054704370825L40.09275,158.48792561312968L40.200874999999996,207.80535754138097L40.35225,127.32063490626487L40.373875,10.211915059523136L40.395500000000006,119.15511173771864L40.87125,123.35208166543057L41.368625,84.29620074006645L41.563250000000004,186.13231892257252L41.649750000000004,147.97218215296215L41.801125,173.62509607997808L41.82275,78.27748608250509L41.90925,79.90362403135407L42.341750000000005,71.9298051439903L42.536375,127.76407451521268L42.644499999999994,177.15575029802594L42.666125,121.66610538603908L43.25,152.46844009140676L43.37975,122.79739672216502L43.63925,146.36396679586986L44.07175,111.8095953210511L44.15825,124.29455946097997L44.2015,161.43985356187278L44.288000000000004,83.57134753313254L44.85025,182.25684752924877L44.93675,69.70432030951434L45.261125,131.69625260342252L45.304375,99.84693982960148L45.390875,118.03644330223852L45.520625,199.15635800649497L45.736875,41.76492692123759L45.80175,142.83991310220551L45.80175,131.08881164409897L46.018,96.68413235365666L46.082875,142.95072482543236L46.4505,58.26546701585704L46.558625,89.67610990273003L46.68837499999999,92.39856122637336L46.9695,28.720556295053512L47.077625000000005,69.1604274645109L47.44525,60.590248790146276L47.466875,18.22321721674365L47.4885,113.83504090559754L47.96425,156.63582810691813L48.13725,82.82914988256313L48.158874999999995,138.79586335254663L48.223749999999995,129.2734265435826L48.483250000000005,85.00298681821336L48.504875,153.02596759626812L48.613,65.20343718610026L48.634625,130.6658962934532L48.677875,22.71807796389541L48.82925,136.35477744787931L48.894125,62.783790940926835L49.00225,-1.1539952128448476L49.153625,49.60577174072915L49.2185,-28.869982531294227L50.64575,66.87346621314911L50.840375,67.34721041944893L51.25125,166.96179444630715L51.402625,30.735209781337858L51.77025,143.21840740554035L52.6785,77.85259539244527L52.938,181.8406290610067L53.694875,66.48682965710759L53.781375000000004,136.50206068175083L54.170625,-32.96881181543526L54.473375000000004,69.8011601198126L54.495,103.38077386231585L55.122125,69.40103344094346L55.792500000000004,96.42584468051791L56.160125,129.05334482545203L56.18175,135.63546482710677L56.549375,78.052249210294L56.6575,231.33174632066354L56.679125,168.05593976564705L56.70075,120.9189934764396L56.722375,184.64922445470637L56.722375,166.25471929409966L57.3495,112.84298690865664L57.782,101.93400636806406L58.128,120.60053021968767L58.409124999999996,170.29525197602132L58.474,136.81117721054363L58.711875,146.52608916485175L58.9065,-17.043143669312684L59.0795,118.6886907409538L59.2525,102.52203118631786L60.550000000000004,79.9272799253125L60.744625,175.0988919988952L60.76625,84.096691459248L60.85275,93.28375417891552L61.1555,118.8041276491501L61.306875000000005,173.1956283839589L61.912375,173.74284558065915L61.955625,43.44276094792241L62.06375,39.10891445252028L62.626000000000005,84.45003631931137L62.863875,151.19111817567187L62.907125,142.30647510239348L62.928749999999994,149.0503320409493L63.036875,34.80219273980367L63.404500000000006,53.379440885714516L63.53425,121.84393411231312L64.0965,86.30386826988648L64.39925,140.63302536562765L64.702,57.71622630073266L65.112875,49.118103800510795L65.221,160.6824795231223L65.26425,152.5235568789596L65.86975,-10.741907296532958L65.934625,-20.51521221108058L66.04275,61.60465784777294L66.84287499999999,83.4813009632582L66.972625,96.23341771418399L66.99425,63.5733967374333L67.03750000000001,53.22305181893434L67.059125,101.93145288052884L67.318625,77.00613836402243L67.3835,27.92309731990099L67.405125,33.02106291546741L67.707875,98.3019835127687L67.751125,8.221881047399194L68.16199999999999,134.7054172161628L68.29175000000001,30.152243759144426L68.313375,-6.8867192664606875L69.1135,21.447934720665216L69.2,85.20143616080962L69.546,157.74413805522704L70.19475,98.51450112631376L70.36775,-6.222234359180419L70.605625,106.64446818540719L71.124625,193.80256186730483L71.14625000000001,60.603305301883L71.66525,16.873915859921397L72.05449999999999,21.475685830482035L72.09775,35.5440531373024L72.18424999999999,50.573350800539956L72.57350000000001,-30.54121603359556L72.638375,51.75860262797637L72.984375,42.43167624199256L73.070875,171.5765245705843L73.39525,200.27184662730858L73.525,66.41668101840399L73.546625,64.85023686306721L73.95750000000001,151.55660414628008L74.08725000000001,224.084900516678L75.36312500000001,-0.9253376309167436L75.406375,44.3891412432898L76.22812499999999,85.82978681051596L76.24974999999999,68.64997085251592L76.24974999999999,46.55782302485946L76.833625,137.94776823778045L77.136375,29.373719134960652L77.85000000000001,86.84390679408203L78.260875,56.67098267664285L79.23400000000001,128.19334949519148L79.40700000000001,102.657414204695L79.558375,95.27976238829169L80.22875,177.0593922778287L80.46662500000001,73.07025049203499L81.24512499999999,135.46746461889285L81.26675,130.52222648533908L81.61275,-68.05276696925816L81.87225000000001,40.96385452032766L82.02362500000001,90.33659595217217L82.499375,-0.7600836262784298L82.82375,25.30553170124236L82.867,-16.6342965896157L83.018375,2.1061338634991955L83.4725,-28.7095464276658L83.494125,6.96007277291605L84.078,138.9517224502157L84.424,86.88813512535258L84.597,120.0781252131882L84.64025,71.80584055100651L85.007875,130.4969806840474L85.0295,162.73543532243508L85.094375,179.43962809274143L85.483625,27.14038112183863L85.72149999999999,82.33117163418369L85.981,7.009552616287351L86.02425,21.411800463091225L86.08912500000001,85.4058597006581L86.391875,-140.15862977911127L86.608125,42.315805722705335L86.651375,53.848078116943896L86.82437499999999,89.90761004625396L86.867625,97.7284605765546L87.34337500000001,-10.757420937784701L87.7975,-48.688466514376074L87.905625,73.18289301764558L88.44625,6.657556768506737L88.6625,45.753956241363824L88.79225,134.79088678007776L88.857125,119.49848354269159L89.0085,88.09492297030307L89.61399999999999,105.36497821421786L89.8735,187.53601438179612L89.91675,145.22405141693625L90.17625,133.66123353029516L90.306,129.06789488650182L90.41412500000001,138.3924605009908L90.5655,147.69640549915758L90.825,162.17641426826066L91.863,50.670576042918995L91.90625,61.38279350626874L92.12249999999999,33.897872720252366L92.706375,63.50242905555801L92.8145,78.39870447191326L93.009125,90.33712592128326L93.593,32.26214714839378L93.701125,-5.093978300690651L93.83087499999999,22.67177793519062L93.8525,60.44412185251713L94.02550000000001,58.82492168112235L94.04712500000001,-119.57038975168359L94.522875,-33.66220412877476L94.631,26.847067308358163L95.496,96.19699438254942L95.647375,97.11470816690813L95.733875,184.56597112525594L95.88525,146.11170149899343L96.59887499999999,62.652262243357555L96.94487500000001,69.37940106540918L97.226,96.26425228064711L97.463875,45.558734892444164L98.458625,92.2251167900183L98.545125,192.21096826869658L98.783,201.3687381502241L98.977625,67.75095052407546L99.648,93.03722218424082L99.972375,130.96662967448884L100.55625,102.73021268895404L100.66437499999999,107.77768668193708L100.85900000000001,88.615111742338L100.967125,30.341587268832058L100.98875000000001,22.16532018103382L101.183375,84.68558349968357L101.442875,77.42452488771893L101.6375,96.31724919175561L102.07,60.74403619038111L102.09162500000001,73.00554608147252L102.178125,52.91475433331321L102.28625,120.23668233542281L102.307875,44.31513828377831L102.480875,57.087586576965705L102.826875,-32.081498986448764L103.043125,119.77276664718309L103.8865,66.34470157731663L104.27575,62.426206327974796L104.44875,87.86183291944592L104.62175,145.28678048808467L104.729875,47.44108881699768L104.79475,174.9537768204781L105.075875,201.5905061337081L105.184,176.86022025008094L105.378625,91.33987565846606L105.53,70.25370556166904L105.74625,97.71463320065628L105.83275,90.98633808236231L105.94087499999999,127.46430471437898L106.30850000000001,47.625662604685516L106.373375,112.83388107574798L107.022125,37.468900948762894L107.04374999999999,114.5999790489335L107.38975,124.07722394642505L108.016875,112.15773684802382L108.406125,75.49827988496558L108.51425,106.38830038871278L108.644,72.34221747043459L108.838625,93.77970890887082L110.07125,80.19679330780424L110.11449999999999,101.08118971030821L110.265875,170.34314191205937L110.438875,19.141027359122575L110.50375000000001,66.0253710983829L110.957875,91.26298195834865L111.130875,23.046899707818568L111.260625,71.809983945875L111.649875,96.94559984146194L111.71475,50.544877005571664L111.73637500000001,82.46954175118695L111.80125,95.90262063084678L112.03912500000001,51.598985567519605L112.104,-6.301537009802729L112.19049999999999,103.44027493978766L113.163625,28.858444621955783L113.206875,14.38855344497344L113.509625,56.3250092051246L113.552875,34.333410971544L113.61775,-9.214536318386166L114.24487500000001,83.42671414481646L114.52600000000001,47.01600541089746L114.6125,71.03194111179221L114.98012499999999,9.550417250868946L114.98012499999999,4.179758458144278L115.08825,80.25533080507408L115.499125,135.52956736290997L115.585625,192.66004482182592L115.62887500000001,86.36365842141889L116.493875,77.12041897597639L116.775,42.795620484277606L116.969625,81.35766655613075L117.01287500000001,126.83643585477364L117.229125,86.90692493929105L117.358875,110.36364686997099L117.618375,86.37955749475144L117.68325,36.21716208739036L117.877875,-20.031976739791304L117.8995,24.845614870840848L117.92112499999999,65.1737589158795L118.159,32.132979222319335L118.22387499999999,-24.147716856476933L118.483375,-41.2497237131677L118.656375,3.7101094677028357L118.851,-112.0078750735318L118.915875,-27.446340961889774L119.02399999999999,109.83309961076488L119.24025,31.52915168875319L119.521375,2.13957009650764L119.60787499999999,142.3263730335642L119.84575000000001,73.87103381888433L120.602625,71.40499118698591L121.38112500000001,158.20130868205294L121.446,175.97093208168042L121.74875,123.99816219085321L121.96499999999999,4.727023833854616L122.24612499999999,132.94461893408814L122.35425000000001,98.68982454406267L122.70025,-25.37589618191123L122.91650000000001,70.64679810506375L123.39225,114.11592453447255L123.413875,123.9379384282299L123.63012499999999,52.26004976508291L123.71662500000001,26.93745113130319L123.99775,31.19286219826475L124.75462499999999,221.88523963161492L124.841125,-30.011246922510622L124.92762499999999,81.46462395854972L125.057375,126.07424391501328L125.29525,98.235207404772L125.42500000000001,94.46486261148344L125.706125,136.32269022715363L125.965625,162.284046176821L126.0305,25.3328973789784L126.28999999999999,28.468290998177082L126.484625,145.057352041995L127.2415,107.58313983915882L127.71724999999999,14.583003929731518L128.02,85.90504242429002L128.041625,76.61213041943581L128.47412500000002,-13.226691563359736L128.733625,30.466852695088477L129.44725,153.7304410819303L130.290625,41.773213710974545L130.333875,-1.713257162069766L130.377125,62.60687761584467L130.5285,101.38664463433352L130.65825,-16.189700684425503L130.89612499999998,134.06261286342686L130.961,34.369448871097774L131.13400000000001,-25.541439260610133L131.307,70.60565323043953L131.56650000000002,190.45450609753078L131.7395,43.80501892485401L132.518,82.84562710401686L132.73425,130.44697087156501L132.799125,45.281175615265965L132.864,105.05913785811175L134.03175000000002,155.1030610796403L134.05337500000002,177.973010846329L134.29125,43.88740503212267L134.3345,98.77172886123034L134.81025,107.36103460260414L134.918375,12.997336349365384L135.0265,78.84667290781032L135.06975,135.61898760565305L135.394125,84.07640809599648L135.480625,119.4233724659478L135.740125,23.324796238067478L135.740125,7.291303467344136L135.869875,118.00416336547244L136.215875,44.79297770593652L136.302375,142.55652416480535L136.49699999999999,128.31341158835727L136.54025000000001,147.48335791650143L136.648375,86.17412219569087L136.734875,45.32338042811236L136.821375,-8.418040923435598L136.99437500000002,56.72402776676144L137.31875,58.08537387610836L137.426875,88.48401665585963L137.83775,159.6765981502831L137.92425,64.4494356780567L137.945875,37.5146710083566L138.18375,119.8073109974238L138.248625,180.4087970598855L138.551375,0.8283783366734099L138.6595,95.12583045102656L138.724375,95.3917304077609L138.83249999999998,36.63829481466249L138.940625,-22.443817985328792L139.092,49.42856934158638L139.50287500000002,156.6824653886936L139.5245,73.13601484081961L139.892125,52.84417208351873L139.935375,76.76167806678198L140.194875,138.3464013673365L140.25975,75.0261737650091L140.281375,80.90873454003172L140.71387499999997,141.78031213310632L140.77875,72.81991235556251L140.800375,65.87196913022886L140.9085,5.7447572431781L140.973375,118.32628822699189L141.12475,120.87914943508804L141.21125,82.46679554761134L141.38425,38.78216440603137L141.665375,118.89084986732766L141.85999999999999,168.87604287554595L141.96812500000001,238.0144159163941L142.16275,170.42013197019696L142.443875,79.41118636913598L142.703375,95.81257406097244L142.725,149.85819768228316L142.725,138.05472564019942L143.37375,-55.0357138418L143.395375,34.809515949338675L143.50349999999997,77.91710708696733L143.914375,73.65663722394542L144.455,73.58504321493886L145.08212500000002,3.2873386540873355L145.471375,121.35819333249873L145.666,129.03214606100863L145.88225,149.53024316054177L146.185,144.0616846192967L146.206625,78.40332965688272L146.29312499999997,146.77305477061734L146.31474999999998,153.3855757276443L146.48775,144.96870266341352L146.57424999999998,104.40371060472998L146.682375,117.79439195550302L147.00675,149.30577715249225L147.43925,127.66742742095482L147.56900000000002,180.9468120656569L147.69875,184.14055046608505L147.806875,108.3014888797294L147.95825,96.04007534665818L147.979875,85.37064084427601L148.369125,-9.686401543292135L148.758375,63.854232187298194L149.061125,79.43118065832691L149.2125,84.35883345319466L149.536875,94.08020139485598L149.796375,119.47945283370262L149.99099999999999,93.03404236957431L150.35862500000002,116.47563609108329L150.63975,41.08300121230158L150.791125,49.28287601504812L150.81275,25.334342749281348L151.029,-30.03514371151951L151.093875,30.556754727932542L151.24525,126.44502957673237L151.353375,155.97664289074865L151.396625,-23.48935068347916L151.483125,39.73957769471136L151.67775,111.03709307312965L151.8075,3.251782544634551L152.86712500000002,44.0551643452861L153.0185,105.2967567359182L153.14825,137.97667564383963L153.19150000000002,140.16959146748889L153.3645,142.49471049484882L153.7105,188.3578037570485L153.818625,187.26785001158714L154.510625,110.95143079317428L154.53225,49.16869176111439L154.70524999999998,40.072639191523194L154.87825,83.11523684452881L155.65675000000002,140.54876027696514L155.74325000000002,89.27391152642667L156.08925,55.940058914436534L156.28387500000002,68.26477966677736L156.327125,73.05632675811648L156.565,182.31822758811444L157.257,77.43570241806181L157.3435,91.20747973871502L157.581375,124.69748052243483L157.81924999999998,117.69051800973037L158.12199999999999,121.90261614661324L158.619375,58.81914019991051L158.922125,-19.389172387055396L159.570875,55.65069577978416L159.743875,67.2427583255551L160.06825,108.44038896584375L160.392625,54.66447144306518L160.652125,96.89004944281822L160.717,122.85906585509127L160.84675,142.48729092729363L161.063,151.65522657995197L161.517125,112.64791009676728L161.517125,114.5189901329577L161.733375,52.396781795742825L162.3605,-27.51393611305818L162.555125,97.70769542320208L162.83625,80.5114986017685L162.857875,75.97756467742676L162.944375,134.3252848264846L163.07412499999998,68.63956418633461L163.203875,54.98226019367576L163.35524999999998,8.078211239285082L163.39849999999998,5.935787018219173L163.593125,2.7922511463138164L163.78775000000002,64.83703581430018L163.982375,80.27913123606281L164.13375,216.14914304729214L164.241875,128.95496328683063L164.285125,45.76590463586828L164.414875,5.120887241410941L164.414875,0.11537716622379435L164.458125,62.70978798141533L164.760875,93.47545846009797L165.042,99.83079986121844L165.409625,26.48206312785092L165.56099999999998,115.45693910155785L165.95025,31.568562119013876L166.53412500000002,125.50814054635438L166.57737500000002,130.11839002269235L166.793625,184.73874105546963L167.312625,-28.16921882940963L167.637,32.78301042657006L168.09112499999998,-22.03044207868254L168.63174999999998,112.75091682035814L168.80475,183.17639211599123L168.89124999999999,81.76477919146419L168.956125,121.00971455245534L169.49675,165.51839948276228L169.518375,112.69705268706788L169.561625,135.5575111887672L169.69137500000002,87.15745579180391L169.994125,108.34774072942409L170.25362500000003,93.49839166890492L170.340125,205.61962039023638L170.57799999999997,27.177334422584266L170.945625,48.307347418571055L171.31325,-7.7736466633664065L171.57275,46.1494095562534L171.594375,80.02445698868144L171.74575,140.0814238790084L172.308,123.46467601203105L172.329625,138.25515032220972L172.52425,44.08561347966844L172.5675,140.28493201766503L172.654,-33.335213187235354L172.675625,78.25908170064741L172.74050000000003,86.72760266370393L172.95675,-50.87531178275296L172.978375,4.254773176867843L173.865,149.22859437831426L173.92987499999998,200.63473093137145L174.73,106.6550193886188L175.37875,10.38747937232256L175.443625,79.85351786085151L175.703125,96.06112957407127L176.092375,120.04974777624011L176.114,115.76302035271445L176.178875,143.0732922271233L176.265375,8.07512778263876L176.45999999999998,104.44948066432367L176.58975,125.71116689491001L176.654625,165.9049878597937L176.870875,61.00694904848933L177.28175,61.831195553256705L177.822375,129.39628301933408L178.081875,138.06763761490583L178.34137500000003,71.3981497675519L178.730625,107.66311699592255L178.990125,147.13377101922578L179.01175,78.9736727784303L179.8335,118.61170068281618L179.898375,168.48237218403005L180.22275000000002,114.63336710293186L180.30925,86.58759446035732L180.3525,20.25010817159304L180.417375,61.074592378667816L181.066125,121.62703220884907L181.412125,61.651295129548416L181.43374999999997,71.2368946207518L181.52025,133.4629287247292L181.5635,151.47898776101118L181.73649999999998,92.38237307898022L181.801375,75.0193323455751L181.844625,81.0750484828922L182.147375,114.64420738020405L182.4285,101.47442679073323L182.64475,82.0490353510461L182.99075,114.45211766694081L182.99075,100.34501443600114L183.01237500000002,99.62348558076404L183.271875,48.093914403834134L184.093625,117.91541762887078L184.78562499999998,153.45736245269126L185.23975000000002,144.71007773720407L185.28300000000002,67.56228152052923L185.75875,161.12018582986838L185.953375,-128.698770437051L186.36425,116.46397677063942L186.688625,142.64209008674052L186.75349999999997,183.54568422839725L186.861625,121.37852487476036L187.31574999999998,79.23494755019517L187.48875,154.916319236498L187.553625,140.71623051606798L187.64012499999998,208.49364287965L188.1375,134.92453535409138L188.202375,-68.85798276503658L188.37537500000002,125.56494359926066L188.44025,169.10436320440337L188.548375,90.86025361293419L188.743,164.60868341407993L188.91600000000003,137.76863867823374L188.93762500000003,99.99128414385699L189.283625,62.94740685922177L189.629625,107.0031127365814L190.12699999999998,153.86230703257024L190.25675,59.015084233981625L190.38649999999998,74.6215182591907L191.0785,112.89853730730034L191.40287500000002,97.57192697274414L191.81375,90.05233979259025L192.07325,98.93279129199006L192.15975,106.41325711594386L192.224625,62.227227016267435L192.397625,56.24479115331037L192.722,39.17790679498151L192.76525,82.94371956857769L192.95987499999998,118.44760297442025L193.17612499999998,50.74342270618813L194.387125,83.30853103304452L194.473625,95.74541252089496L194.5385,148.28953729248184L194.798,76.03692121786827L194.81962499999997,76.93150907737964L195.2305,24.376833102581173L195.511625,56.83175603334199L195.641375,195.0115177677098L195.87925,41.80231383307412L196.506375,111.62714140980758L196.65775,237.37199699573898L196.765875,121.35867512259972L196.809125,59.70539309067482L197.30650000000003,76.03012797744437L198.085,87.20370764149861L198.322875,84.1850035847588L198.366125,32.59954475611448L198.409375,71.92590264417231L198.51749999999998,118.0733484239741L198.73375,151.40681560388344L199.014875,81.4824020132761L199.3825,8.270300952548325L199.469,113.73150421289559L200.0745,107.32755019058558L200.658375,48.3931060565466L200.9395,47.167865650728345L201.00437499999998,42.474796456030816L201.220625,66.91726093332875L201.76125000000002,73.50092266330665L201.8045,43.22812345793301L202.1505,196.92224912921137L202.691125,131.93179978379473L202.90737499999997,74.77901544320314L203.253375,193.1533015272157L203.3615,153.59785244613886L203.3615,141.6125528199429L203.642625,98.94507693956521L203.729125,215.44770483926618L203.8805,122.25413020429286L204.334625,111.98284704136579L204.61575,184.2297298137776L205.415875,160.18527213890445L206.151125,129.1211808716709L206.4755,100.54274109344591L206.843125,152.7478301709687L206.86475,135.63589843819764L207.102625,181.88172575662082L207.5135,43.646124549548716L207.55675,146.5698838850314L207.62162500000002,147.92246141454035L208.010875,222.08971135047352L208.097375,90.74332315542482L208.24875,73.72929117117415L208.3785,105.0467558525164L208.573125,91.32662643068893L208.59475,37.775945780121475L208.832625,22.47414763576606L208.85425,71.51850093477829L208.85425,62.41859404437922L208.8975,66.869997324422L209.09212499999998,42.26675949042493L209.481375,20.80541944198987L209.654375,101.75222696296193L209.80575000000002,110.46453371711753L209.80575000000002,84.25495950742202L210.043625,126.40427013418892L210.15175,50.101341038603664L210.23825,113.46473703397946L210.346375,101.78691585023294L210.865375,136.09962141039696L210.951875,69.07346435128288L210.99512499999997,84.85912429405884L211.29787499999998,116.5352335265753L211.44925,92.91417299244891L211.514125,75.94374301233752L211.6655,75.23184995912015L211.773625,27.43316496620801L211.83849999999998,112.07997592572461L211.86012499999998,118.54694809324363L211.90337499999998,207.51821064119312L212.16287499999999,126.52264596200126L212.27100000000002,25.54493320242247L212.31425000000002,65.68686537342991L212.48725,134.78751424937087L212.63862500000002,136.1802730733021L213.027875,93.42790577713062L213.114375,97.84250029345806L213.244125,107.91605679894036L213.763125,62.08211183785038L213.78474999999997,132.93474223701793L213.828,108.16639493541284L214.13075,123.52735690416938L214.541625,128.8718063154004L215.731,117.11323711072856L215.839125,71.65489571236752L216.012125,88.65847285142677L216.03375,90.19533509456299L216.141875,67.31613495793532L216.444625,84.04027383842252L216.81225,131.31438576938078L216.81225,120.87389792298728L216.920375,78.81839182888241L216.942,71.35787211510944L217.3745,96.8130112056705L217.63400000000001,124.37525930289519L217.807,13.299852353774696L217.828625,52.02387625757943L217.91512500000002,74.24071136337112L218.088125,127.69421495056966L218.304375,119.0362541198053L218.563875,86.73290235481478L218.80175,149.4022315307097L219.1045,122.25682822885838L219.23425,27.83102723160249L219.68837499999998,40.55520015667108L219.70999999999998,-2.2676530312746763L220.164125,110.21197934618051L220.25062499999999,147.61768099665642L221.115625,80.91123984855683L221.13725,60.35778506642038L222.067125,136.36099254018205L222.15362499999998,40.47185046920046L222.629375,51.48581307279791L222.651,33.4501933584159L223.19162500000002,67.55009223097427L223.29975,154.26734797046944L223.840375,76.80812263251705L223.9485,48.74963073127648L224.035,86.31625027548183L224.33775,-39.153358625756056L224.748625,63.12489833242513L224.921625,-34.93740616806531L225.37575,29.05713485960254L225.89475,181.2146391827952L226.32725,79.45233124376021L226.608375,26.826446692035944L226.803,155.07280466129833L226.86787500000003,70.7158868055452L226.911125,37.32022052359852L227.10575,71.58204904909837L227.17062499999997,124.40036056715658L227.213875,117.6888317443769L227.343625,120.53780114853924L227.5815,-15.991684952920167L228.07887499999998,36.42283828150141L228.31674999999998,130.43911769291896L228.706,36.86507341519675L228.879,125.40831363743001L229.246625,118.7306064797396L229.37637500000002,190.61889287998733L229.506125,129.0049249203029L229.917,36.20068486593664L229.981875,125.45658900554886L230.025125,128.89107791943985L230.30625,124.49594772319224L230.58737499999998,207.61919384635985L231.452375,85.09014264748178L231.495625,97.91621417890896L231.53887500000002,106.18951379304583L232.0795,162.85564195263115L232.29575,152.89082547294146L232.46874999999997,144.59849514981562L232.490375,69.93032804588704L232.512,152.69825396957722L232.72825,75.48127269440077L232.793125,102.4780919291079L233.05262499999998,129.42326326498932L233.31212499999998,10.574799363586038L233.33374999999998,78.52040465142238L233.485125,45.752896303141654L233.917625,-12.132738960060209L233.9825,36.677994318983764L234.133875,124.13128079575571L234.242,70.03714091127569L234.35012500000002,127.41188595139167L234.39337500000002,74.68670445985414L234.8475,266.92842249995607L234.912375,100.32338206046684L234.95562500000003,75.26735788956285L235.0205,-23.065664468671798L235.0205,-26.981895304538995L235.453,37.75094087388027L235.66925,89.07844928245653L235.950375,174.35240641642702L236.209875,13.373710776255876L236.96675,122.89404381642288L237.074875,77.80407912927596L237.204625,15.029912427406401L237.377625,35.318719907071085L237.550625,78.58689168535851L237.637125,-81.8969091630795L237.74525000000003,88.48984631608157L237.810125,75.07849616997622L238.242625,146.82976146550342L238.394,121.29604240947148L238.43725,60.49470981312068L238.502125,143.14117645235225L238.545375,141.96907749467277L239.36712500000002,94.40271168845621L239.36712500000002,95.33834806457162L239.38875000000002,127.95346620391038L239.842875,38.67597786777398L239.886125,102.3616914407096L240.2105,18.901481320912183L240.448375,-20.818450900641352L240.51325,12.207393299788237L240.53487500000003,-28.890603147616474L240.59975,22.406407947567374L241.03225,71.5635964882306L241.20525,98.16660049439155L241.356625,49.89079876447265L241.46474999999998,0.5034590925682494L241.486375,42.93745949000797L241.68099999999998,121.51207709075376L241.89725,76.23565963452512L242.005375,62.845845505933866L242.15675000000002,69.66596981747584L242.17837500000002,205.3557921309363L242.610875,175.7354330803183L242.6325,130.88588165356356L242.870375,106.39307011071254L243.10825,112.49262914721939L243.562375,90.80060799843208L243.692125,-9.995662609115243L243.71375,5.434532597153009L243.821875,89.98566004261374L243.90837499999998,31.526790917258353L243.92999999999998,4.377870547669858L243.95162499999998,33.33340743793681L243.994875,14.68177090043369L244.124625,23.68768054213035L244.49224999999998,-35.76666328988293L245.314,-46.99010822938928L245.508625,75.18689894269812L245.55187500000002,20.579218989576788L245.941125,20.032772657038123L246.287125,63.16344154050404L246.287125,58.2320307828486L246.330375,215.93460191532293L246.330375,201.0455051714724L246.69799999999998,94.03255235386844L246.76287499999998,153.1877045331692L246.849375,72.48482734032653L246.91425,39.9841825289821L247.108875,26.50966970063746L247.47650000000002,102.84502327001907L247.73600000000002,173.1922076742419L247.73600000000002,159.05470348792997L248.12525,112.82540156997062L248.536125,102.61983457681808L248.968625,66.74261202172123L249.0335,159.98031862994486L249.055125,112.13648990457031L249.07675,105.81699368696322L249.271375,6.89849999801001L249.401125,-13.556139634414166L249.50924999999998,84.52013677900487L249.55249999999998,117.47038811258972L250.24450000000002,42.46564244411209L250.89325,68.75654282285409L250.9365,108.08097355050798L251.196,190.3236519061029L251.369,214.08399795842445L251.58525,164.90002188814634L252.10425,184.4300099587576L252.125875,7.860972082750351L252.19075,46.68265484002504L252.904375,-72.42101327787068L253.099,49.750983277166426L253.92075000000003,78.58462727188386L254.331625,96.50582183728164L254.35325,49.57228732871059L254.720875,92.93845521353863L255.023625,81.50865957377987L255.175,93.79478893903169L255.283125,43.662939024073154L255.39124999999999,81.12139669060707" style="fill: none;" fill="none"></path></g></g></g></g></g></g><g transform="translate(48, 177)" clip-path="url(#clip_1)"><clipPath id="clip_1"><rect width="281" height="22"></rect></clipPath><g><g><line x1="0" y1="0" x2="0" y2="5" style="visibility: inherit;" fill="rgb(0, 0, 0)" stroke="rgb(204, 204, 204)" stroke-width="1px"></line><line x1="21.625" y1="0" x2="21.625" y2="5" style="visibility: inherit;" fill="rgb(0, 0, 0)" stroke="rgb(204, 204, 204)" stroke-width="1px"></line><line x1="43.25" y1="0" x2="43.25" y2="5" style="visibility: inherit;" fill="rgb(0, 0, 0)" stroke="rgb(204, 204, 204)" stroke-width="1px"></line><line x1="64.875" y1="0" x2="64.875" y2="5" style="visibility: inherit;" fill="rgb(0, 0, 0)" stroke="rgb(204, 204, 204)" stroke-width="1px"></line><line x1="86.5" y1="0" x2="86.5" y2="5" style="visibility: inherit;" fill="rgb(0, 0, 0)" stroke="rgb(204, 204, 204)" stroke-width="1px"></line><line x1="108.125" y1="0" x2="108.125" y2="5" style="visibility: inherit;" fill="rgb(0, 0, 0)" stroke="rgb(204, 204, 204)" stroke-width="1px"></line><line x1="129.75" y1="0" x2="129.75" y2="5" style="visibility: inherit;" fill="rgb(0, 0, 0)" stroke="rgb(204, 204, 204)" stroke-width="1px"></line><line x1="151.375" y1="0" x2="151.375" y2="5" style="visibility: inherit;" fill="rgb(0, 0, 0)" stroke="rgb(204, 204, 204)" stroke-width="1px"></line><line x1="173" y1="0" x2="173" y2="5" style="visibility: inherit;" fill="rgb(0, 0, 0)" stroke="rgb(204, 204, 204)" stroke-width="1px"></line><line x1="194.625" y1="0" x2="194.625" y2="5" style="visibility: inherit;" fill="rgb(0, 0, 0)" stroke="rgb(204, 204, 204)" stroke-width="1px"></line><line x1="216.25" y1="0" x2="216.25" y2="5" style="visibility: inherit;" fill="rgb(0, 0, 0)" stroke="rgb(204, 204, 204)" stroke-width="1px"></line><line x1="237.875" y1="0" x2="237.875" y2="5" style="visibility: inherit;" fill="rgb(0, 0, 0)" stroke="rgb(204, 204, 204)" stroke-width="1px"></line><line x1="259.5" y1="0" x2="259.5" y2="5" style="visibility: inherit;" fill="rgb(0, 0, 0)" stroke="rgb(204, 204, 204)" stroke-width="1px"></line><line x1="281.125" y1="0" x2="281.125" y2="5" style="visibility: inherit;" fill="rgb(0, 0, 0)" stroke="rgb(204, 204, 204)" stroke-width="1px"></line></g><g transform="translate(0, 8)"><text x="0" y="0" dx="0em" dy="0.95em" style="text-anchor: middle; visibility: hidden; font-family: &quot;Helvetica Neue&quot;, sans-serif; font-size: 12px; font-weight: 200;" fill="rgb(50, 49, 63)" stroke="none" stroke-width="1px">-1k</text><text x="21.625" y="0" dx="0em" dy="0.95em" style="text-anchor: middle; visibility: inherit; font-family: &quot;Helvetica Neue&quot;, sans-serif; font-size: 12px; font-weight: 200;" fill="rgb(50, 49, 63)" stroke="none" stroke-width="1px">0</text><text x="43.25" y="0" dx="0em" dy="0.95em" style="text-anchor: middle; visibility: hidden; font-family: &quot;Helvetica Neue&quot;, sans-serif; font-size: 12px; font-weight: 200;" fill="rgb(50, 49, 63)" stroke="none" stroke-width="1px">1k</text><text x="64.875" y="0" dx="0em" dy="0.95em" style="text-anchor: middle; visibility: inherit; font-family: &quot;Helvetica Neue&quot;, sans-serif; font-size: 12px; font-weight: 200;" fill="rgb(50, 49, 63)" stroke="none" stroke-width="1px">2k</text><text x="86.5" y="0" dx="0em" dy="0.95em" style="text-anchor: middle; visibility: hidden; font-family: &quot;Helvetica Neue&quot;, sans-serif; font-size: 12px; font-weight: 200;" fill="rgb(50, 49, 63)" stroke="none" stroke-width="1px">3k</text><text x="108.125" y="0" dx="0em" dy="0.95em" style="text-anchor: middle; visibility: inherit; font-family: &quot;Helvetica Neue&quot;, sans-serif; font-size: 12px; font-weight: 200;" fill="rgb(50, 49, 63)" stroke="none" stroke-width="1px">4k</text><text x="129.75" y="0" dx="0em" dy="0.95em" style="text-anchor: middle; visibility: hidden; font-family: &quot;Helvetica Neue&quot;, sans-serif; font-size: 12px; font-weight: 200;" fill="rgb(50, 49, 63)" stroke="none" stroke-width="1px">5k</text><text x="151.375" y="0" dx="0em" dy="0.95em" style="text-anchor: middle; visibility: inherit; font-family: &quot;Helvetica Neue&quot;, sans-serif; font-size: 12px; font-weight: 200;" fill="rgb(50, 49, 63)" stroke="none" stroke-width="1px">6k</text><text x="173" y="0" dx="0em" dy="0.95em" style="text-anchor: middle; visibility: hidden; font-family: &quot;Helvetica Neue&quot;, sans-serif; font-size: 12px; font-weight: 200;" fill="rgb(50, 49, 63)" stroke="none" stroke-width="1px">7k</text><text x="194.625" y="0" dx="0em" dy="0.95em" style="text-anchor: middle; visibility: inherit; font-family: &quot;Helvetica Neue&quot;, sans-serif; font-size: 12px; font-weight: 200;" fill="rgb(50, 49, 63)" stroke="none" stroke-width="1px">8k</text><text x="216.25" y="0" dx="0em" dy="0.95em" style="text-anchor: middle; visibility: hidden; font-family: &quot;Helvetica Neue&quot;, sans-serif; font-size: 12px; font-weight: 200;" fill="rgb(50, 49, 63)" stroke="none" stroke-width="1px">9k</text><text x="237.875" y="0" dx="0em" dy="0.95em" style="text-anchor: middle; visibility: inherit; font-family: &quot;Helvetica Neue&quot;, sans-serif; font-size: 12px; font-weight: 200;" fill="rgb(50, 49, 63)" stroke="none" stroke-width="1px">10k</text><text x="259.5" y="0" dx="0em" dy="0.95em" style="text-anchor: middle; visibility: hidden; font-family: &quot;Helvetica Neue&quot;, sans-serif; font-size: 12px; font-weight: 200;" fill="rgb(50, 49, 63)" stroke="none" stroke-width="1px">11k</text><text x="281.125" y="0" dx="0em" dy="0.95em" style="text-anchor: middle; visibility: hidden; font-family: &quot;Helvetica Neue&quot;, sans-serif; font-size: 12px; font-weight: 200;" fill="rgb(50, 49, 63)" stroke="none" stroke-width="1px">12k</text></g><line x1="0" y1="0" x2="281.125" y2="0" fill="rgb(0, 0, 0)" stroke="rgb(204, 204, 204)" stroke-width="1px"></line></g></g></g></g></svg>